<?xml version="1.0" standalone="no"?> <!DOCTYPE svg PUBLIC "-//W3C//DTD SVG 20010904//EN" "http://www.w3.org/TR/2001/REC-SVG-20010904/DTD/svg10.dtd"> <svg version="1.0" xmlns="http://www.w3.org/2000/svg" width="1800.000000pt" height="1800.000000pt" viewBox="0 0 1800.000000 1800.000000" preserveAspectRatio="xMidYMid meet"> <g transform="translate(0.000000,1800.000000) scale(0.100000,-0.100000)" fill="#ffffff" stroke="none"> <path d="M4605 11143 c-16 -2 -44 -11 -62 -19 -17 -7 -35 -14 -40 -14 -4 0 -33 -17 -64 -38 -131 -88 -172 -179 -184 -417 -9 -171 -50 -296 -135 -410 -16 -22 -35 -51 -42 -65 -14 -26 -25 -42 -70 -95 -16 -18 -28 -35 -28 -38 0 -4 -24 -40 -52 -82 -29 -41 -58 -83 -63 -93 -11 -19 -53 -86 -72 -117 -7 -11 -19 -34 -27 -52 l-15 -32 -428 -1 -428 0 -55 -28 c-30 -16 -65 -35 -78 -43 -30 -18 -102 -113 -102 -134 0 -9 -7 -26 -15 -39 -13 -20 -15 -129 -12 -892 5 -965 4 -911 17 -919 6 -3 10 -15 10 -25 0 -21 128 -160 147 -160 8 0 28 -7 45 -16 26 -13 62 -16 207 -14 97 1 188 1 203 1 15 0 30 4 33 9 4 6 11 10 17 10 13 0 6 -53 -17 -135 -43 -152 -43 -184 -3 -285 14 -36 69 -100 86 -100 5 0 15 -6 21 -14 6 -7 42 -21 80 -30 61 -15 74 -15 124 -2 31 8 63 18 71 23 15 8 143 145 256 273 36 40 74 83 85 95 11 11 39 46 63 76 23 30 47 60 52 67 9 9 161 12 703 12 742 0 695 -3 835 49 51 19 170 119 207 175 14 21 33 45 41 53 8 8 14 23 14 32 0 10 6 24 14 30 14 12 21 49 34 183 7 74 9 79 53 125 93 96 138 247 114 380 -7 40 -5 44 39 95 25 29 46 59 46 68 0 8 7 24 15 34 8 11 15 30 15 42 0 12 7 35 15 50 20 39 20 173 0 221 -21 51 -19 79 10 101 14 11 25 23 25 27 0 4 6 21 14 38 49 113 64 203 46 282 -6 28 -15 69 -19 93 -4 24 -13 48 -19 54 -7 7 -12 19 -12 28 0 9 -10 30 -22 47 -13 16 -32 43 -43 58 -11 16 -33 41 -49 56 -42 40 -162 109 -189 109 -13 0 -29 6 -36 13 -9 9 -95 12 -361 12 -247 0 -351 3 -354 11 -2 6 4 29 14 50 64 139 96 394 70 564 -15 97 -51 225 -68 242 -7 7 -12 19 -12 28 0 10 -13 35 -29 57 -16 22 -31 48 -35 59 -8 27 -143 164 -161 164 -8 0 -15 4 -15 10 0 12 -105 61 -192 89 -64 20 -149 25 -233 14z m210 -103 c43 -11 93 -31 111 -45 18 -14 37 -25 42 -25 12 0 119 -106 151 -149 33 -44 87 -158 95 -201 4 -19 11 -46 17 -60 5 -14 15 -72 22 -130 16 -120 8 -223 -24 -335 -45 -154 -54 -181 -66 -200 -7 -11 -13 -27 -13 -36 0 -9 -7 -30 -16 -48 -13 -25 -13 -35 -4 -46 12 -15 42 -20 52 -9 3 3 158 7 344 9 423 5 469 -3 589 -98 55 -44 72 -65 108 -137 42 -84 42 -86 42 -195 0 -83 -5 -124 -20 -170 -22 -66 -27 -74 -67 -115 -28 -28 -36 -54 -19 -64 20 -13 33 -144 22 -214 -12 -71 -41 -152 -53 -152 -5 0 -8 -5 -8 -11 0 -7 -18 -32 -41 -56 -36 -39 -40 -48 -33 -76 12 -52 4 -188 -12 -211 -8 -11 -14 -32 -14 -46 0 -14 -13 -41 -30 -60 -16 -19 -29 -40 -30 -47 0 -6 -18 -27 -39 -45 l-39 -34 0 -89 c1 -71 -3 -100 -19 -135 -11 -25 -24 -55 -27 -66 -4 -12 -15 -29 -26 -39 -11 -10 -20 -23 -20 -29 0 -23 -98 -98 -185 -142 l-90 -45 -717 0 c-395 1 -718 -3 -718 -8 0 -9 -51 -69 -120 -141 -25 -26 -54 -58 -65 -71 -272 -323 -278 -329 -365 -325 -53 1 -72 10 -103 44 -7 8 -21 24 -33 35 -37 38 -37 121 -3 247 8 30 24 126 32 195 2 20 -4 20 -277 21 l-279 1 -50 54 c-27 30 -56 68 -63 85 -11 26 -14 204 -15 891 -1 472 2 873 6 892 5 20 30 57 65 95 l58 61 453 2 454 2 23 28 c13 15 52 72 87 125 35 53 68 103 74 110 7 7 35 49 64 93 28 44 57 84 64 88 7 4 13 13 13 18 0 6 16 34 35 63 19 29 35 57 35 63 0 5 10 19 23 30 36 34 56 64 99 151 33 69 42 100 49 173 5 49 13 131 18 181 5 51 7 96 4 100 -9 15 71 160 102 184 16 13 38 30 48 39 9 8 27 15 40 16 12 0 40 6 62 14 58 19 112 18 200 -5z m403 -1207 c-5 -25 -28 -28 -28 -4 0 12 6 21 16 21 9 0 14 -7 12 -17z"/> <path d="M4601 10850 c-23 -17 -47 -43 -52 -58 -6 -15 -15 -90 -20 -167 -10 -165 -31 -267 -70 -352 -28 -61 -134 -224 -233 -358 -57 -77 -148 -211 -159 -235 -4 -8 -16 -28 -27 -45 -11 -16 -23 -37 -27 -45 -4 -8 -19 -33 -33 -55 -14 -22 -35 -57 -45 -78 -11 -21 -29 -44 -40 -49 -13 -8 -167 -11 -475 -10 -462 0 -510 -3 -510 -37 -3 -294 1 -1675 6 -1682 4 -6 139 -9 365 -8 198 1 363 -1 366 -5 3 -3 0 -18 -6 -34 -7 -16 -16 -54 -22 -83 -32 -193 -61 -332 -79 -381 -20 -54 -1 -70 31 -28 13 17 47 59 75 93 27 34 54 70 60 79 8 14 138 159 209 232 39 41 93 105 97 116 2 8 216 11 746 10 l742 0 49 24 c53 27 90 66 124 130 17 33 21 58 21 126 0 79 -2 89 -28 123 -15 20 -25 41 -21 46 3 6 24 15 45 21 62 17 105 50 144 112 34 55 36 63 36 142 0 62 -4 87 -15 96 -8 7 -15 17 -15 22 0 5 -9 21 -20 35 -26 33 -25 53 0 53 41 0 140 67 140 94 0 5 6 17 13 25 8 9 21 41 30 71 13 43 14 63 6 95 -6 22 -13 50 -16 62 -3 12 -20 40 -39 62 -19 21 -34 45 -34 53 0 7 20 21 45 31 33 14 53 32 80 72 19 29 35 62 35 74 0 11 4 30 9 44 10 27 -7 137 -28 177 -23 43 -74 90 -121 111 -43 20 -63 20 -532 18 -269 -1 -491 1 -495 4 -3 4 -1 18 5 32 6 14 15 62 18 107 4 45 13 93 21 107 7 14 13 33 13 42 0 8 7 24 15 35 8 10 15 27 15 36 0 9 6 29 14 45 42 84 81 280 71 357 -18 143 -42 231 -88 324 -40 81 -95 135 -174 172 -89 42 -163 42 -222 0z m205 -105 c13 -13 34 -30 45 -36 16 -8 19 -17 15 -35 -5 -19 -3 -24 14 -24 11 0 20 -6 20 -14 0 -7 9 -16 20 -19 21 -5 27 -31 10 -42 -15 -9 -12 -25 4 -25 21 0 23 -10 51 -228 5 -38 -10 -126 -30 -188 -8 -23 -11 -50 -9 -62 3 -11 1 -23 -5 -26 -6 -4 -11 -16 -11 -27 0 -11 -7 -22 -15 -25 -8 -4 -15 -15 -15 -26 0 -11 -11 -39 -25 -63 -19 -31 -24 -51 -19 -69 4 -18 1 -33 -10 -45 -14 -15 -16 -32 -12 -88 5 -74 19 -123 35 -123 5 0 13 -9 16 -20 4 -11 25 -30 48 -42 41 -21 52 -22 428 -24 213 -1 391 -4 396 -7 5 -3 40 -9 78 -13 77 -8 137 -38 131 -66 -2 -10 2 -22 9 -28 7 -6 11 -20 8 -31 -4 -12 1 -25 12 -33 15 -11 16 -14 3 -19 -9 -3 -19 -18 -23 -34 -3 -15 -22 -49 -40 -74 -46 -64 -67 -107 -75 -152 -6 -30 -5 -37 6 -33 9 4 14 -2 14 -16 0 -12 10 -42 21 -66 17 -34 19 -46 9 -52 -7 -4 -9 -16 -5 -28 4 -14 -3 -36 -19 -65 -14 -24 -26 -51 -26 -61 0 -9 -11 -21 -25 -26 -15 -6 -25 -17 -25 -29 0 -10 -7 -21 -15 -25 -8 -3 -15 -1 -15 4 0 6 -4 10 -10 10 -5 0 -10 -8 -10 -18 0 -10 -5 -23 -11 -29 -7 -7 -8 -19 -3 -30 8 -17 12 -53 17 -160 1 -24 5 -43 10 -43 15 0 6 -30 -13 -40 -11 -6 -20 -18 -20 -28 0 -9 -21 -38 -47 -63 -61 -60 -123 -130 -123 -140 0 -4 9 -11 20 -14 25 -8 25 -28 -1 -84 -15 -35 -17 -46 -7 -53 7 -4 16 -8 19 -8 4 0 9 -9 12 -20 4 -15 -7 -33 -39 -67 -24 -25 -43 -52 -42 -61 2 -12 -6 -17 -27 -19 -16 -2 -75 -7 -130 -12 -120 -11 -1227 -17 -1244 -6 -7 4 -26 1 -42 -5 -23 -10 -33 -10 -42 -1 -8 8 -7 11 6 11 13 0 17 9 17 38 0 30 7 45 40 77 21 22 39 44 40 49 0 5 17 24 37 43 34 29 36 35 25 53 -18 29 -15 32 17 25 28 -6 31 -3 50 40 12 28 29 49 41 52 11 3 20 12 20 19 0 17 35 54 51 54 8 0 10 14 6 40 -4 35 -3 39 9 29 11 -9 19 -8 34 6 11 10 20 26 20 35 0 22 19 40 36 33 8 -3 16 5 19 20 4 14 17 34 31 46 13 11 26 33 30 48 12 58 14 60 34 33 16 -21 20 -23 25 -8 4 9 2 25 -4 36 -12 22 10 62 34 62 8 0 21 10 30 23 15 21 17 21 29 5 21 -29 29 -21 22 21 -5 33 -3 41 12 45 10 4 26 24 36 46 10 22 35 62 57 90 21 27 39 57 39 67 0 10 14 34 31 53 28 31 30 40 25 79 -7 54 -48 100 -70 82 -12 -10 -17 -8 -26 8 -9 19 -20 21 -93 22 -124 0 -159 9 -175 42 -11 22 -11 37 -2 75 7 26 14 66 17 90 4 30 9 42 18 38 23 -8 40 40 27 80 -10 32 -8 38 20 70 23 26 29 40 24 59 -4 15 0 37 9 55 8 16 15 44 15 62 0 44 31 118 50 118 12 0 15 15 16 71 0 55 4 74 17 84 23 17 21 52 -4 65 -20 11 -20 13 -3 31 14 15 14 21 4 34 -19 23 -39 18 -45 -12 -3 -16 -12 -41 -20 -58 -15 -31 -32 -82 -85 -255 -17 -58 -36 -118 -42 -135 -6 -16 -13 -48 -18 -70 -4 -22 -12 -51 -17 -65 -10 -24 -21 -61 -58 -195 -9 -33 -21 -73 -27 -90 -5 -16 -12 -41 -15 -55 -3 -14 -14 -45 -25 -68 -28 -59 -13 -75 52 -62 25 5 129 11 233 12 215 3 218 2 148 -75 -21 -23 -62 -71 -90 -107 -28 -36 -62 -78 -75 -95 -14 -16 -62 -78 -108 -136 -46 -58 -105 -134 -133 -169 -27 -35 -54 -70 -60 -78 -5 -9 -69 -90 -141 -181 -213 -271 -286 -368 -352 -466 -15 -22 -30 -42 -33 -45 -4 -3 -15 -21 -25 -40 -37 -67 -67 -100 -86 -94 -14 4 -18 0 -18 -18 0 -13 5 -29 10 -34 8 -8 7 -20 -1 -40 l-11 -29 -11 30 c-5 17 -13 32 -17 35 -4 3 -9 18 -12 34 -5 22 -2 30 13 33 11 3 19 14 19 28 0 14 9 26 25 33 14 6 25 20 25 31 0 10 9 40 21 67 27 65 32 78 59 149 12 33 28 74 36 92 8 17 14 37 14 45 0 18 39 121 51 132 5 6 9 20 9 33 0 12 7 37 14 55 8 18 29 80 47 138 17 58 37 117 45 132 8 14 14 33 14 41 0 9 8 28 17 45 30 52 15 63 -79 57 -46 -3 -135 -7 -198 -9 -103 -3 -190 -19 -190 -36 0 -13 49 -28 126 -40 43 -7 84 -16 91 -22 8 -7 22 -4 42 8 l31 18 31 -32 c31 -32 32 -34 20 -75 -7 -23 -19 -55 -27 -70 -8 -16 -14 -36 -14 -46 0 -9 -5 -22 -10 -27 -6 -6 -13 -28 -15 -49 -3 -21 -17 -53 -30 -71 -14 -18 -25 -43 -25 -57 0 -13 -3 -27 -7 -31 -5 -4 -8 -15 -9 -24 -2 -54 -18 -122 -30 -126 -8 -3 -14 -20 -14 -40 0 -22 -9 -45 -24 -63 -16 -19 -21 -34 -16 -44 5 -8 1 -36 -11 -69 -10 -30 -19 -69 -19 -87 0 -26 -4 -33 -20 -33 -13 0 -20 7 -20 20 0 11 -8 24 -17 27 -10 4 -24 14 -30 24 -7 9 -25 19 -40 22 -108 22 -145 26 -210 19 -40 -5 -79 -5 -86 0 -8 4 -27 4 -43 -1 -28 -8 -175 0 -257 15 -21 3 -41 13 -44 21 -3 7 0 85 6 171 7 94 12 383 12 715 -1 487 1 562 15 597 16 39 36 51 50 29 5 -8 9 -7 15 4 7 12 41 15 201 18 215 3 202 3 421 -3 86 -2 157 0 157 4 0 4 6 8 14 8 8 0 28 11 45 25 l30 26 21 -21 c11 -11 31 -20 45 -20 41 0 30 -33 -25 -76 -37 -29 -49 -46 -50 -66 0 -18 -16 -44 -47 -78 -26 -29 -53 -66 -61 -83 -11 -26 -32 -53 -129 -159 -9 -10 -14 -27 -11 -43 5 -24 3 -26 -23 -20 -22 5 -29 3 -29 -8 0 -8 -7 -17 -15 -21 -23 -8 -18 -28 5 -21 33 11 36 -21 4 -49 -27 -22 -28 -26 -15 -50 18 -34 26 -33 41 4 7 17 22 38 34 48 12 9 56 64 99 122 42 58 83 112 90 120 29 33 107 139 107 145 0 4 12 22 28 40 15 18 54 72 87 119 33 47 88 124 123 171 34 46 62 87 62 89 0 3 27 41 60 85 33 44 60 84 60 89 0 4 14 21 30 37 17 16 30 33 30 38 0 5 20 34 43 65 61 79 177 259 177 273 0 6 10 27 21 46 12 19 19 36 16 39 -12 12 -60 -24 -78 -57 -10 -21 -28 -40 -39 -44 -11 -3 -20 -12 -20 -20 0 -8 -9 -17 -20 -20 -11 -3 -20 -12 -20 -19 0 -7 -18 -27 -40 -45 -22 -17 -40 -40 -40 -51 0 -10 -11 -27 -25 -38 -17 -14 -25 -30 -25 -51 0 -33 -9 -37 -40 -21 -11 6 -21 6 -24 1 -3 -5 1 -11 9 -15 23 -9 18 -38 -12 -67 -16 -15 -39 -45 -53 -67 -14 -23 -30 -42 -35 -42 -6 0 -23 -14 -39 -30 -23 -25 -26 -33 -16 -45 15 -18 5 -34 -11 -18 -12 12 -40 -10 -52 -40 -3 -9 -13 -17 -22 -17 -8 0 -15 -8 -15 -19 0 -10 -7 -24 -16 -32 -10 -9 -14 -22 -10 -41 4 -21 1 -30 -14 -38 -17 -9 -20 -8 -20 8 0 30 -13 35 -31 11 l-17 -22 -11 22 c-14 25 -7 41 18 41 12 0 20 10 24 30 4 19 17 35 36 45 26 13 30 19 24 45 -5 29 11 44 19 18 3 -8 19 2 41 26 20 21 37 40 37 42 0 2 -11 4 -25 4 -14 0 -25 3 -25 6 0 3 20 25 44 49 24 23 51 57 60 74 9 17 21 31 26 31 5 0 12 11 16 25 3 14 12 25 20 25 8 0 25 25 39 55 13 30 29 55 36 55 20 0 49 31 49 52 0 10 10 23 23 28 l22 9 -22 7 c-40 11 -19 41 25 35 25 -3 31 23 7 33 -24 9 -18 24 31 72 37 36 45 49 40 68 -3 14 -3 26 2 28 22 10 62 172 73 298 7 78 18 143 26 155 31 46 122 57 159 20z m-403 -756 c-17 -17 -37 -1 -22 17 8 10 15 12 23 4 7 -7 7 -13 -1 -21z m-363 -2199 c0 -11 -4 -20 -10 -20 -5 0 -10 9 -10 20 0 11 5 20 10 20 6 0 10 -9 10 -20z m-60 -100 c0 -5 -7 -10 -15 -10 -8 0 -15 5 -15 10 0 6 7 10 15 10 8 0 15 -4 15 -10z"/> <path d="M3915 9310 c-4 -6 -3 -16 3 -22 6 -6 12 -6 17 2 4 6 3 16 -3 22 -6 6 -12 6 -17 -2z"/> <path d="M4925 8920 c-3 -5 3 -10 14 -10 12 0 21 5 21 10 0 6 -6 10 -14 10 -8 0 -18 -4 -21 -10z"/> <path d="M5847 8924 c-8 -8 1 -24 14 -24 5 0 9 7 9 15 0 15 -12 20 -23 9z"/> <path d="M5547 8054 c-9 -9 4 -35 14 -28 5 3 9 12 9 20 0 14 -12 19 -23 8z"/> <path d="M2996 7864 c-9 -24 -7 -62 4 -69 6 -4 10 12 10 39 0 48 -4 56 -14 30z"/> <path d="M14717 9489 c-10 -6 -69 -13 -130 -16 l-113 -6 4 -516 c2 -323 -1 -541 -7 -581 -6 -37 -7 -68 -2 -74 6 -7 52 -11 117 -10 118 0 118 1 129 67 4 23 11 37 20 37 8 0 15 -3 15 -7 1 -20 60 -72 104 -91 82 -37 229 -24 287 25 8 7 20 13 25 13 26 0 105 105 129 171 34 92 48 207 35 299 -6 47 -18 100 -26 118 -8 18 -14 37 -14 42 0 15 -56 93 -87 121 -15 14 -41 33 -58 42 -38 20 -131 47 -163 47 -49 0 -131 -34 -174 -71 -28 -26 -46 -35 -53 -28 -10 10 -9 275 1 354 7 50 -12 79 -39 64z m-88 -173 c6 -7 9 -21 5 -30 -4 -10 0 -18 11 -22 14 -6 16 -15 11 -44 -4 -27 -2 -41 9 -50 21 -17 19 -29 -7 -40 -13 -5 -18 -9 -12 -9 7 -1 14 -10 17 -21 3 -12 14 -20 26 -20 25 0 27 -18 5 -34 -14 -11 -14 -13 1 -26 14 -12 17 -10 22 8 3 13 13 22 24 22 24 0 24 -15 -1 -47 -11 -14 -20 -31 -20 -38 0 -7 -7 -16 -16 -19 -8 -3 -12 -11 -9 -17 4 -5 -1 -19 -10 -29 -19 -21 -39 -99 -36 -140 5 -74 0 -154 -9 -165 -7 -9 -7 -15 -1 -19 5 -4 14 1 19 10 13 24 26 -1 12 -25 -15 -29 -12 -41 10 -41 24 0 37 -27 22 -42 -9 -9 -8 -15 0 -26 18 -21 -16 -43 -56 -35 -65 12 -64 7 -67 301 -3 339 -1 516 6 570 6 43 23 54 44 28z m391 -276 c0 -23 7 -24 46 -10 31 12 42 6 25 -14 -15 -18 4 -33 22 -18 26 22 89 -61 93 -122 1 -23 8 -74 14 -115 10 -65 9 -82 -6 -130 -9 -31 -21 -61 -26 -68 -5 -6 -6 -28 -2 -49 5 -26 4 -35 -5 -30 -6 4 -11 14 -11 22 0 8 -7 14 -15 14 -17 0 -21 -45 -5 -55 6 -3 10 -13 10 -21 0 -12 -3 -12 -21 -2 -17 11 -22 10 -30 -4 -5 -10 -26 -20 -45 -24 -20 -4 -38 -13 -41 -20 -6 -16 -33 -19 -33 -5 0 5 5 22 10 36 9 23 15 27 40 23 33 -5 39 8 13 27 -17 13 -10 35 12 35 7 0 15 -7 19 -15 3 -8 10 -15 16 -15 5 0 10 7 10 15 0 8 -7 15 -16 15 -18 0 -11 33 15 65 8 11 17 22 19 25 2 2 7 -2 12 -10 16 -26 19 -5 9 75 -10 81 -9 124 6 159 7 15 5 17 -14 11 -15 -4 -23 -1 -28 11 -4 10 -2 19 5 22 7 2 12 8 12 14 0 6 -7 7 -15 4 -9 -3 -18 1 -21 9 -4 8 -12 15 -20 15 -11 0 -12 4 -2 19 10 17 8 23 -13 40 -13 11 -36 23 -51 26 -32 7 -31 6 -18 39 11 31 30 34 30 6z m-72 -114 c121 -63 140 -308 32 -400 -60 -50 -170 -42 -211 15 -17 24 -19 46 -19 183 l0 156 38 24 c58 36 117 44 160 22z m8 -534 c-22 -5 -30 3 -21 18 5 8 11 7 22 -2 15 -12 14 -13 -1 -16z"/> <path d="M11185 9480 c-11 -5 -69 -9 -130 -9 l-110 -1 3 -522 c1 -288 3 -554 5 -592 l2 -69 143 -1 142 -1 0 290 c0 290 0 290 23 305 92 59 148 66 190 22 l27 -28 2 -294 3 -295 142 0 c88 0 143 4 144 10 1 6 0 143 0 305 -2 372 -12 423 -97 499 -45 39 -150 75 -194 65 -120 -25 -147 -38 -197 -94 -21 -23 -35 -32 -41 -25 -6 6 -7 86 -3 211 3 111 5 209 3 218 -4 17 -25 20 -57 6z m-64 -171 c4 -13 7 -58 8 -100 1 -54 5 -80 16 -89 8 -7 17 -28 21 -46 5 -28 12 -36 35 -41 20 -4 31 -14 38 -36 14 -38 14 -37 -6 -37 -21 -1 -63 -62 -63 -92 0 -16 -5 -19 -21 -15 -19 5 -20 3 -14 -21 4 -15 7 -40 8 -57 2 -25 -2 -30 -20 -29 -29 1 -29 -5 3 -35 20 -19 24 -30 19 -50 -4 -14 -11 -71 -15 -126 -9 -117 -6 -105 -25 -105 -10 0 -15 11 -16 33 -1 17 -3 62 -5 98 -3 61 -1 67 17 72 12 3 18 10 14 17 -4 6 -14 8 -23 5 -13 -3 -20 4 -28 33 -14 46 -10 222 5 250 14 26 14 62 1 62 -5 0 -10 -10 -10 -22 0 -17 -3 -19 -11 -11 -9 9 -9 19 -1 40 6 16 11 86 11 161 -1 114 1 136 17 153 22 24 36 20 45 -12z m484 -310 c43 -42 45 -46 39 -89 -5 -42 -4 -44 10 -26 18 23 32 15 20 -11 -4 -10 -9 -90 -11 -178 -3 -190 -12 -260 -33 -260 -31 0 -40 46 -40 220 0 195 -12 252 -53 273 -15 7 -27 21 -27 30 0 19 -35 55 -62 65 -37 13 -15 24 47 22 62 -1 66 -3 110 -46z"/> <path d="M8907 9473 l-97 -4 2 -522 c3 -512 3 -523 24 -562 28 -51 48 -69 109 -95 44 -19 63 -21 156 -17 59 2 112 8 119 12 17 10 7 204 -10 215 -7 4 -30 5 -52 2 -28 -3 -43 -1 -49 9 -5 8 -9 217 -8 489 l1 475 -48 1 c-27 0 -93 -1 -147 -3z m83 -161 c13 -58 13 -49 11 -379 -2 -169 2 -269 8 -282 6 -11 11 -37 11 -59 0 -46 23 -107 52 -138 28 -31 21 -78 -11 -82 -14 -2 -28 3 -33 11 -6 11 -18 14 -41 10 -25 -4 -37 0 -55 20 -22 23 -23 31 -18 104 3 43 6 112 5 154 0 47 4 80 11 84 8 5 8 11 -2 22 -18 22 -27 319 -13 470 7 79 11 93 29 101 32 16 33 15 46 -36z"/> <path d="M6732 9430 c-8 -6 -10 -1140 -2 -1140 80 -6 586 1 637 8 131 18 234 86 287 189 22 44 22 187 0 245 -30 76 -118 148 -163 133 -11 -3 -22 -1 -26 6 -12 18 16 58 44 64 37 8 100 97 103 144 4 79 -5 168 -20 196 -42 83 -112 135 -181 135 -18 0 -40 4 -50 9 -18 10 -618 20 -629 11z m598 -95 c8 -7 35 -16 60 -19 76 -10 82 -12 92 -30 5 -9 7 -24 4 -33 -5 -12 -1 -14 17 -9 35 8 40 -4 15 -31 l-23 -24 25 -19 c19 -15 22 -22 13 -31 -6 -6 -9 -18 -6 -25 3 -7 -4 -29 -16 -47 -14 -24 -17 -37 -10 -44 8 -8 -3 -25 -35 -59 -40 -42 -45 -53 -40 -79 4 -16 12 -34 19 -40 8 -5 15 -19 17 -30 2 -14 10 -19 26 -17 16 2 22 -2 22 -16 0 -27 26 -48 34 -27 3 8 10 15 16 15 16 0 12 -30 -5 -36 -22 -9 -18 -35 5 -41 12 -3 24 -20 32 -44 9 -33 9 -42 -6 -58 -12 -14 -16 -29 -11 -52 7 -44 -7 -68 -29 -50 -14 12 -16 11 -16 -6 0 -10 -6 -25 -12 -31 -10 -10 -16 -8 -30 10 l-18 23 0 -33 c0 -28 -4 -33 -30 -38 -16 -4 -30 -12 -30 -19 0 -23 -132 -46 -144 -26 -8 13 -59 20 -76 11 -8 -4 -71 -11 -139 -14 -93 -5 -127 -3 -139 6 -12 10 -16 10 -19 1 -3 -7 -11 -13 -18 -13 -7 0 -15 6 -18 13 -3 9 -9 9 -26 -1 -22 -13 -29 -4 -10 15 8 8 8 20 2 40 -5 15 -8 58 -5 95 3 49 0 74 -10 90 -22 33 -31 244 -12 263 17 17 18 39 2 64 -8 14 -8 29 2 62 7 24 14 93 16 153 3 143 10 175 37 185 26 9 150 7 167 -4 6 -4 17 -1 25 5 16 13 57 10 62 -6 2 -5 -9 -15 -24 -21 l-28 -11 25 -1 c14 -1 31 -5 39 -10 21 -14 -6 -25 -63 -27 -43 -1 -52 -5 -81 -40 -31 -36 -32 -40 -17 -57 11 -13 13 -20 5 -28 -6 -6 -9 -26 -6 -44 3 -19 0 -35 -6 -39 -18 -11 -13 -45 9 -63 11 -10 20 -26 20 -36 0 -9 8 -20 18 -24 9 -3 25 -13 36 -22 10 -9 35 -16 55 -16 31 0 36 -3 39 -26 5 -47 -49 -64 -61 -18 -7 27 -27 24 -27 -5 0 -16 -8 -27 -27 -35 -16 -6 -38 -29 -51 -51 -20 -36 -22 -46 -13 -93 5 -29 7 -73 4 -96 -5 -34 -2 -46 11 -53 9 -5 16 -15 16 -23 0 -7 14 -25 30 -39 26 -22 37 -25 75 -20 39 6 44 4 47 -15 4 -28 22 -28 26 -1 3 19 22 29 22 11 0 -13 30 -22 50 -16 10 3 20 15 23 27 5 18 11 20 40 15 32 -5 37 -2 68 39 18 24 40 46 48 49 23 7 43 79 35 123 -4 20 -21 55 -39 77 -17 22 -34 48 -38 58 -5 13 -13 16 -31 11 -27 -6 -70 12 -61 27 4 5 15 9 26 9 11 0 29 9 41 20 12 11 17 20 10 20 -6 0 -14 -4 -17 -10 -10 -16 -52 -12 -59 6 -8 21 -28 7 -21 -15 3 -10 -1 -24 -9 -30 -12 -10 -17 -8 -26 8 -14 27 -30 27 -38 -1 -5 -22 -6 -21 -13 6 -10 36 -4 46 24 46 26 0 90 31 119 57 37 33 79 103 74 121 -3 9 -2 23 3 31 14 21 -18 90 -45 97 -33 8 -57 49 -44 73 5 11 10 22 10 25 0 12 -38 5 -50 -9 -23 -27 -130 3 -130 37 0 6 17 7 38 3 26 -4 47 -1 67 10 32 16 70 13 95 -10z m-161 -129 c101 -4 105 -5 135 -35 25 -26 31 -39 31 -76 0 -37 -6 -50 -33 -77 -31 -32 -35 -33 -140 -39 -59 -3 -115 -9 -126 -14 -11 -5 -21 -4 -25 3 -5 8 -7 208 -2 245 1 5 13 6 29 3 15 -3 74 -8 131 -10z m137 -446 c51 -17 74 -53 74 -115 0 -98 -54 -135 -197 -135 -48 0 -105 -4 -126 -9 -20 -5 -39 -5 -42 -1 -6 10 -14 268 -8 273 8 9 267 -3 299 -13z m-86 -300 c0 -5 -9 -10 -21 -10 -11 0 -17 5 -14 10 3 6 13 10 21 10 8 0 14 -4 14 -10z"/> <path d="M7398 8983 c-10 -2 -18 -11 -18 -19 0 -12 3 -12 20 -2 11 7 20 16 20 20 0 5 -1 7 -2 7 -2 -1 -11 -3 -20 -6z"/> <path d="M7400 8485 c0 -8 4 -15 9 -15 5 0 11 7 15 15 3 9 0 15 -9 15 -8 0 -15 -7 -15 -15z"/> <path d="M7287 8414 c-13 -13 -7 -24 14 -24 11 0 19 5 17 12 -5 14 -22 21 -31 12z"/> <path d="M9894 9431 c-2 -2 -4 -55 -4 -117 l0 -114 168 -2 c160 -3 167 -4 165 -23 -2 -15 -4 -789 -3 -875 0 -13 23 -15 147 -14 l148 1 3 375 c1 206 -1 409 -6 452 -7 66 -6 78 7 84 9 4 78 5 154 2 76 -3 145 -2 154 1 14 5 16 22 16 113 -1 59 -3 110 -6 113 -6 6 -937 10 -943 4z m331 -111 c7 -21 0 -40 -15 -40 -12 0 -23 37 -15 50 10 16 23 12 30 -10z m162 0 c-4 -18 -2 -20 16 -14 12 3 26 10 32 15 15 15 25 10 25 -11 0 -13 10 -24 25 -30 27 -10 34 -40 10 -40 -21 0 -65 -48 -65 -70 0 -10 -6 -22 -13 -28 -17 -14 -27 -257 -13 -327 10 -52 8 -322 -4 -364 -12 -45 -16 -47 -45 -25 -19 14 -20 28 -23 341 -2 200 -7 333 -13 345 -7 14 -7 23 1 33 10 12 7 17 -14 26 -26 12 -35 29 -16 29 22 0 8 17 -25 29 -37 13 -45 28 -20 37 12 5 13 9 4 21 -17 20 0 33 57 42 81 14 87 13 81 -9z m163 -10 c0 -11 -6 -20 -13 -20 -19 0 -27 10 -20 26 8 21 33 17 33 -6z m-392 -8 c2 -7 -3 -12 -12 -12 -9 0 -16 7 -16 16 0 17 22 14 28 -4z"/> <path d="M9406 9384 c-3 -7 -8 -61 -12 -120 -3 -60 -11 -114 -15 -120 -7 -8 -24 -9 -57 -3 -26 5 -51 8 -57 5 -6 -2 -10 -46 -9 -107 l1 -104 61 2 62 1 0 -239 c0 -234 1 -241 24 -287 53 -103 126 -142 269 -142 84 0 199 18 214 34 4 3 -1 30 -10 60 -9 29 -17 68 -17 87 0 49 -12 63 -46 55 -72 -18 -100 -18 -124 2 -25 20 -25 23 -30 214 -4 126 -2 197 5 205 7 8 33 10 95 4 47 -5 89 -5 93 -1 4 4 6 54 5 111 l-3 104 -91 -4 c-54 -2 -94 1 -98 7 -3 5 -2 59 3 118 4 60 7 114 5 119 -6 15 -262 13 -268 -1z m161 -145 c-7 -28 1 -49 20 -49 10 0 13 -6 9 -16 -8 -22 69 -114 96 -114 15 0 19 -6 16 -27 -4 -32 -28 -44 -28 -14 0 31 -19 26 -25 -6 -9 -42 -32 -78 -52 -81 -30 -6 -40 -22 -20 -34 17 -9 17 -11 3 -27 -23 -25 -31 -229 -11 -268 8 -15 15 -36 15 -46 0 -10 15 -36 32 -58 29 -36 31 -42 16 -50 -24 -14 -12 -42 12 -29 24 13 50 3 50 -19 0 -20 -66 -46 -76 -30 -3 5 -16 6 -28 3 -16 -4 -25 0 -29 10 -4 9 -12 16 -19 16 -7 0 -23 15 -35 33 -18 26 -22 48 -23 117 -1 47 0 99 1 115 1 17 1 68 -1 115 -3 81 -3 83 -10 35 -5 -27 -9 -79 -9 -114 -2 -104 -9 -66 -15 69 -3 98 -8 127 -20 136 -9 6 -16 20 -16 31 0 11 -9 32 -20 46 -38 48 -19 127 36 147 16 6 24 17 24 32 0 13 9 29 20 36 11 7 20 18 20 25 0 20 22 37 48 37 20 0 23 -4 19 -21z"/> <path d="M9542 8570 c0 -19 2 -27 5 -17 2 9 2 25 0 35 -3 9 -5 1 -5 -18z"/> <path d="M8115 9155 c-22 -8 -46 -15 -54 -15 -33 0 -110 -48 -161 -99 -60 -61 -104 -141 -116 -211 -10 -63 -9 -197 3 -246 23 -94 116 -219 193 -258 112 -57 253 -72 375 -39 123 33 237 134 285 253 23 56 25 250 4 318 -32 106 -129 222 -214 259 -56 24 -181 53 -230 52 -25 0 -63 -6 -85 -14z m-30 -115 c12 0 26 5 32 11 14 14 53 2 53 -16 0 -8 -12 -15 -27 -17 -20 -2 -29 -9 -31 -24 -2 -12 -14 -26 -28 -32 -13 -7 -24 -19 -24 -28 0 -21 -38 -84 -51 -84 -5 0 -9 10 -9 23 0 12 -4 29 -10 37 -18 29 -23 -19 -10 -90 8 -40 10 -96 7 -133 -5 -57 -4 -64 11 -63 17 1 18 -6 6 -55 -5 -21 -2 -27 15 -32 12 -3 26 -19 33 -37 7 -22 22 -37 44 -46 19 -8 34 -18 34 -22 -1 -16 -28 -42 -45 -42 -10 0 -24 8 -31 18 -12 15 -15 15 -23 2 -9 -13 -15 -10 -41 18 -16 18 -30 37 -30 43 0 5 -9 9 -19 9 -26 0 -36 17 -21 35 10 13 8 15 -15 15 -26 0 -27 2 -21 35 5 27 3 37 -9 41 -14 6 -15 15 -9 58 4 28 7 75 6 104 -2 50 23 121 47 137 6 3 8 12 5 20 -3 8 8 26 26 42 18 15 46 42 63 59 19 19 36 28 42 23 5 -5 18 -9 30 -9z m269 -10 c5 -5 23 -10 38 -10 15 0 28 -4 28 -8 0 -17 46 -62 63 -62 14 0 16 -4 7 -19 -7 -14 -7 -22 2 -27 6 -4 14 -2 16 4 7 22 22 12 22 -13 0 -15 7 -40 16 -57 9 -18 19 -67 22 -114 4 -77 3 -82 -17 -89 -21 -6 -28 -25 -14 -39 10 -9 4 -99 -7 -110 -6 -6 -14 3 -20 20 -11 28 -12 28 -26 9 -9 -12 -12 -30 -8 -48 5 -26 3 -28 -18 -27 -12 1 -34 2 -48 1 -23 -2 -24 -3 -7 -15 24 -19 21 -29 -7 -22 -14 3 -28 2 -31 -4 -10 -16 -75 -12 -75 4 0 21 27 38 49 31 19 -6 20 -3 15 24 -5 24 -3 31 10 31 9 0 16 6 16 14 0 9 7 12 20 9 18 -5 20 0 20 35 0 26 5 42 15 46 10 3 15 19 15 43 0 21 4 53 9 71 7 24 5 50 -10 104 -14 49 -17 74 -9 82 13 13 13 36 -1 36 -6 0 -13 -9 -16 -20 -6 -23 -13 -25 -35 -7 -24 19 -32 53 -13 61 9 3 14 10 10 16 -4 6 -12 6 -24 -2 -18 -11 -29 -9 -61 11 -8 6 -27 12 -42 15 -21 5 -25 10 -21 27 5 19 11 21 56 15 28 -3 55 -10 61 -16z m-47 -119 c17 -13 36 -35 42 -49 17 -36 25 -138 17 -215 -9 -85 -49 -136 -121 -155 -33 -9 -51 -10 -59 -2 -5 5 -17 10 -26 10 -9 0 -28 12 -41 28 -97 104 -68 354 46 403 34 15 109 4 142 -20z m-74 -511 c8 -31 -29 -47 -54 -24 -24 21 -24 31 -1 37 36 10 50 6 55 -13z m-83 -26 c0 -17 -22 -14 -28 4 -2 7 3 12 12 12 9 0 16 -7 16 -16z"/> <path d="M7922 8750 c0 -19 2 -27 5 -17 2 9 2 25 0 35 -3 9 -5 1 -5 -18z"/> <path d="M13370 9147 c-33 -13 -72 -39 -98 -65 -54 -53 -78 -53 -74 1 2 21 -1 43 -6 50 -11 13 -209 16 -229 4 -7 -5 -8 -19 -2 -44 5 -21 9 -208 8 -416 0 -208 2 -381 5 -384 10 -11 276 -9 277 2 0 5 0 136 -1 290 l-1 280 50 33 c32 20 65 33 88 34 31 1 42 -5 70 -38 l34 -39 -1 -275 c-1 -151 -1 -279 -1 -285 1 -6 53 -10 136 -10 83 0 135 4 136 10 0 6 0 135 -1 287 l-2 277 48 34 c62 45 108 53 143 26 50 -40 51 -46 50 -339 0 -151 0 -279 0 -285 1 -6 53 -10 137 -9 116 1 138 4 146 18 5 9 7 20 4 24 -3 5 -8 151 -11 325 -6 289 -8 322 -27 363 -30 68 -83 116 -155 138 -77 24 -140 17 -226 -24 -58 -28 -77 -44 -112 -95 -13 -19 -14 -19 -34 -1 -12 11 -21 24 -21 31 0 22 -57 66 -113 85 -71 25 -146 24 -217 -3z m688 -89 c-6 -18 -28 -21 -28 -4 0 9 7 16 16 16 9 0 14 -5 12 -12z m-486 -41 c19 -26 23 -28 33 -13 11 15 16 14 59 -5 39 -17 45 -23 35 -35 -14 -17 -5 -44 15 -44 10 0 13 -6 10 -15 -4 -10 -14 -13 -32 -8 -24 6 -25 4 -19 -25 5 -22 2 -32 -9 -36 -14 -5 -15 -28 -9 -185 5 -115 4 -180 -3 -184 -5 -4 -22 5 -37 19 l-28 26 6 148 c6 124 4 150 -8 160 -10 8 -15 30 -15 61 0 48 -7 57 -44 50 -13 -3 -66 50 -66 66 0 7 -11 15 -25 19 -25 6 -31 15 -19 27 4 3 35 6 71 5 59 -1 65 -3 85 -31z m477 12 c27 -11 35 -11 38 -1 5 13 33 17 33 4 0 -4 -7 -18 -16 -31 -12 -16 -13 -26 -5 -34 7 -7 12 -6 17 6 10 27 32 19 42 -15 14 -45 11 -520 -3 -525 -6 -2 -21 6 -34 18 -22 21 -23 25 -17 153 3 80 1 149 -6 176 -6 25 -11 64 -12 87 -1 36 -9 51 -50 98 -27 30 -58 55 -68 55 -10 0 -18 7 -18 16 0 19 42 16 99 -7z m-898 -16 c36 -22 60 -85 41 -111 -53 -74 -52 -67 -52 -253 0 -160 -2 -179 -19 -200 -16 -19 -22 -22 -32 -11 -21 20 -13 512 8 558 9 19 19 34 21 34 2 0 17 -8 33 -17z m89 -53 c0 -11 -4 -20 -10 -20 -5 0 -10 9 -10 20 0 11 5 20 10 20 6 0 10 -9 10 -20z m810 -40 c8 -5 11 -12 7 -16 -4 -4 -15 0 -24 9 -18 18 -8 23 17 7z"/> <path d="M11952 9135 c-4 -5 -5 -35 -4 -65 2 -30 4 -179 5 -330 3 -260 4 -278 25 -322 27 -56 67 -98 122 -127 31 -16 59 -21 119 -21 101 0 177 28 240 87 25 24 51 43 57 43 14 0 24 -23 24 -56 0 -56 9 -60 132 -59 l113 1 -4 105 c-2 57 -5 246 -7 419 -2 173 -3 320 -4 325 0 11 -275 13 -286 2 -4 -4 -5 -109 -3 -234 6 -360 7 -344 -24 -367 -15 -11 -47 -28 -72 -37 -62 -24 -110 -7 -136 47 -18 36 -19 62 -17 318 l2 280 -138 0 c-82 1 -140 -3 -144 -9z m701 -147 c16 -22 19 -40 16 -114 -1 -49 -2 -127 -2 -174 1 -47 2 -111 2 -142 1 -32 5 -58 11 -58 5 0 10 -8 10 -17 0 -15 -2 -16 -10 -3 -7 11 -11 9 -19 -13 -6 -16 -11 -32 -11 -37 0 -5 -17 -8 -37 -6 -28 3 -39 9 -42 22 -1 11 -10 27 -18 36 -21 23 -9 51 27 65 34 13 41 43 10 43 -21 0 -28 28 -10 46 5 5 10 83 11 174 2 211 13 243 62 178z m-522 -198 c3 -113 9 -216 14 -229 4 -13 23 -45 41 -71 19 -26 34 -53 34 -59 0 -6 14 -14 30 -17 39 -8 38 -30 -2 -38 -21 -4 -37 -1 -48 9 -9 9 -24 13 -33 9 -26 -10 -93 66 -104 117 -10 52 -1 458 11 477 4 7 18 12 29 10 21 -3 22 -8 28 -208z"/> </g> </svg>