<?xml version="1.0" standalone="no"?> <!DOCTYPE svg PUBLIC "-//W3C//DTD SVG 20010904//EN" "http://www.w3.org/TR/2001/REC-SVG-20010904/DTD/svg10.dtd"> <svg version="1.0" xmlns="http://www.w3.org/2000/svg" width="1200.000000pt" height="1200.000000pt" viewBox="0 0 1200.000000 1200.000000" preserveAspectRatio="xMidYMid meet"> <g transform="translate(0.000000,1200.000000) scale(0.100000,-0.100000)" fill="#280df2" stroke="none"> <path d="M2994 7400 c-106 -51 -142 -118 -154 -285 -9 -128 -27 -187 -81 -269 -21 -32 -39 -61 -39 -65 0 -3 -13 -20 -28 -36 -16 -17 -31 -35 -33 -40 -2 -6 -29 -48 -59 -95 -31 -47 -64 -102 -75 -122 -11 -21 -24 -38 -30 -38 -5 0 -136 -1 -290 -3 -243 -2 -285 -5 -318 -20 -46 -21 -82 -58 -108 -110 -19 -35 -19 -64 -19 -636 l1 -599 31 -46 c17 -26 50 -58 76 -73 42 -25 57 -28 142 -28 52 0 120 2 150 4 63 5 63 6 36 -92 -40 -144 6 -243 126 -273 76 -18 117 -2 190 74 96 103 190 210 217 248 13 19 31 34 40 35 9 0 221 1 471 3 442 2 457 2 515 24 101 37 198 146 220 247 4 17 9 52 11 79 4 39 12 58 39 87 49 54 66 101 72 203 5 66 11 94 24 107 17 17 34 50 59 117 9 23 11 62 7 127 -4 56 -3 97 3 100 5 3 16 20 23 38 44 101 48 171 16 268 -36 110 -104 181 -211 220 -46 17 -81 19 -275 19 -122 0 -224 4 -227 8 -3 5 3 33 14 63 42 120 53 304 25 414 -20 78 -77 191 -120 236 -120 131 -304 176 -441 109z m208 -31 c29 -6 65 -20 80 -30 14 -11 29 -19 32 -19 4 0 32 -25 62 -56 73 -75 96 -127 135 -306 13 -63 8 -150 -14 -219 -8 -24 -20 -64 -27 -89 -8 -25 -17 -49 -21 -55 -4 -5 -9 -25 -11 -43 l-3 -34 245 1 c280 1 317 -5 396 -68 72 -57 107 -130 108 -224 1 -83 -18 -150 -51 -187 -19 -20 -22 -31 -16 -55 5 -16 8 -64 7 -105 -1 -79 -19 -131 -63 -177 -18 -18 -21 -35 -21 -98 0 -41 -4 -83 -9 -93 -5 -9 -16 -33 -24 -53 -9 -20 -29 -52 -45 -71 -24 -27 -30 -43 -30 -80 0 -122 -72 -228 -196 -288 l-61 -30 -472 0 -471 -1 -70 -77 c-38 -42 -82 -93 -98 -112 -15 -19 -58 -65 -94 -102 -63 -64 -70 -68 -111 -68 -38 0 -50 5 -79 35 -31 32 -33 39 -32 97 0 35 5 75 10 89 6 14 12 50 13 80 l3 54 -174 3 c-196 3 -202 5 -248 74 l-27 42 -3 550 c-2 303 0 570 3 594 8 57 62 118 117 133 25 6 138 9 304 7 301 -3 266 -13 344 102 24 36 47 67 52 68 4 2 8 9 8 14 0 6 17 34 38 62 22 28 53 76 70 106 17 30 44 70 60 88 41 47 68 138 82 272 8 72 20 131 32 158 23 48 82 102 113 102 11 0 27 5 35 10 20 13 57 12 122 -1z m278 -814 c0 -8 -4 -15 -10 -15 -5 0 -10 7 -10 15 0 8 5 15 10 15 6 0 10 -7 10 -15z"/> <path d="M3055 7220 c-26 -27 -29 -36 -36 -147 -13 -194 -19 -208 -200 -464 -77 -109 -199 -304 -199 -319 0 -26 -49 -31 -350 -30 -170 1 -314 -2 -320 -5 -8 -5 -11 -165 -8 -568 3 -509 4 -561 19 -564 9 -3 120 -5 245 -6 197 -2 229 -4 227 -17 -1 -8 -6 -33 -11 -55 -32 -137 -62 -289 -58 -292 2 -3 27 24 56 59 28 35 99 118 158 185 l107 122 498 0 c536 1 515 -1 569 56 50 54 61 151 22 210 -18 27 -12 45 15 45 33 0 97 56 115 99 19 49 13 112 -15 153 -24 34 -24 58 0 58 30 0 82 50 103 98 25 55 18 119 -18 161 -32 38 -30 53 9 72 101 48 99 248 -3 301 -18 10 -113 14 -365 18 -292 4 -340 7 -337 20 2 8 6 37 9 65 3 27 14 75 25 105 11 30 30 85 44 123 33 92 41 194 21 283 -42 181 -117 263 -243 264 -43 0 -54 -4 -79 -30z m155 -119 c0 -6 -4 -13 -10 -16 -5 -3 -10 -10 -10 -16 0 -5 5 -9 10 -9 6 0 10 7 10 15 0 18 12 19 28 3 8 -8 9 -15 1 -25 -14 -17 3 -17 20 0 11 10 13 8 8 -10 -3 -12 1 -39 9 -60 26 -74 13 -208 -28 -290 -18 -36 -24 -41 -29 -26 -4 10 -2 24 3 31 13 15 3 16 -23 2 -15 -8 -19 -7 -19 4 0 8 6 17 13 19 8 4 7 6 -4 6 -15 1 -49 -57 -49 -84 0 -9 -4 -23 -9 -33 -9 -17 -52 -153 -92 -292 -12 -41 -37 -122 -56 -179 -18 -57 -31 -106 -29 -109 3 -2 74 -1 157 4 115 7 154 12 157 23 3 8 0 11 -6 7 -6 -4 -20 2 -32 14 -11 11 -32 20 -46 20 -15 0 -38 12 -55 30 -29 28 -30 33 -24 87 4 32 13 71 21 87 8 16 14 46 14 68 0 21 5 38 10 38 6 0 10 -7 10 -15 0 -8 4 -15 9 -15 5 0 7 8 4 19 -12 46 39 33 72 -18 11 -18 35 -36 55 -42 19 -7 43 -18 54 -25 13 -9 74 -13 215 -14 216 -3 237 -4 265 -16 13 -5 21 -3 24 4 6 18 15 15 51 -18 29 -25 33 -35 33 -74 -1 -25 -8 -58 -16 -74 -8 -16 -17 -58 -19 -94 -2 -36 -8 -71 -12 -78 -4 -7 -2 -16 5 -20 10 -6 9 -13 -4 -31 -9 -13 -16 -31 -16 -41 0 -10 -4 -18 -10 -18 -5 0 -10 -12 -10 -26 0 -15 -7 -32 -16 -38 -12 -9 -17 -36 -21 -102 -5 -78 -11 -99 -46 -169 -22 -44 -46 -85 -55 -91 -8 -6 -12 -16 -8 -22 4 -7 2 -12 -4 -12 -15 0 -3 -82 14 -93 6 -4 -1 -5 -17 -1 -21 5 -26 3 -22 -8 3 -7 -10 -28 -29 -47 -29 -28 -40 -33 -65 -28 -17 4 -42 2 -54 -2 -13 -5 -179 -11 -368 -13 -275 -2 -351 0 -376 11 -34 14 -41 25 -23 36 6 3 10 17 10 29 0 27 24 51 40 41 6 -4 10 4 10 19 0 14 6 26 13 26 12 0 57 62 57 80 0 5 7 7 17 3 13 -5 15 -2 11 15 -4 16 -2 19 10 15 12 -5 14 -1 10 15 -4 13 -1 22 5 22 18 0 80 68 72 79 -3 6 5 13 18 17 18 4 23 11 20 24 -3 12 2 20 16 25 11 3 23 15 26 26 4 10 10 19 15 19 5 0 12 9 15 20 3 11 13 20 21 20 8 0 14 6 14 14 0 8 16 35 35 60 19 25 43 63 55 86 11 23 28 44 37 47 14 6 14 8 -3 20 -10 7 -12 13 -6 13 14 0 16 49 2 70 -8 12 -10 11 -10 -7 0 -13 -15 -38 -32 -57 -18 -18 -45 -49 -61 -67 -46 -57 -461 -590 -508 -654 -24 -33 -48 -64 -52 -70 -4 -5 -28 -39 -53 -74 -42 -58 -47 -62 -62 -47 -14 14 -14 17 1 34 9 10 17 25 17 34 0 8 12 43 26 79 49 118 180 488 191 538 l6 24 -129 -7 c-139 -8 -174 -13 -174 -27 0 -5 4 -9 9 -9 5 0 26 -8 47 -17 22 -9 45 -16 52 -14 8 1 16 -7 19 -18 3 -12 11 -21 18 -21 19 0 29 -38 14 -56 -7 -9 -10 -30 -6 -58 5 -34 2 -50 -12 -68 -17 -22 -43 -129 -57 -233 -4 -27 -11 -59 -17 -70 -6 -11 -13 -33 -16 -49 -7 -30 -31 -49 -31 -24 0 7 -10 20 -22 28 -55 35 -94 42 -247 44 -169 3 -181 7 -181 67 0 15 -5 31 -10 34 -12 7 -6 794 6 833 4 13 12 21 19 18 8 -3 16 5 19 19 5 19 16 26 57 34 48 11 213 13 381 7 60 -3 78 0 82 11 3 8 11 11 17 7 9 -5 7 -11 -6 -20 -12 -9 -16 -21 -12 -36 4 -12 3 -27 -2 -32 -4 -6 -18 -36 -30 -67 -12 -31 -33 -66 -45 -78 -12 -12 -28 -37 -36 -56 -8 -19 -20 -35 -27 -35 -7 0 -13 -7 -13 -15 0 -8 -6 -15 -12 -16 -7 0 -2 -5 11 -10 22 -9 23 -11 7 -27 -15 -18 -22 -42 -11 -42 40 0 715 949 715 1004 0 19 -23 1 -34 -26 l-14 -32 -16 32 c-20 38 -20 52 -2 89 8 15 20 55 26 88 6 33 19 85 28 115 15 47 21 56 47 61 45 10 45 10 45 0z"/> <path d="M7390 6321 l-85 -6 0 -395 0 -395 95 0 95 1 -4 189 c-3 175 -2 191 15 205 58 46 100 51 133 16 21 -23 22 -30 21 -207 -1 -101 -1 -190 -1 -197 1 -9 25 -11 94 -10 l92 3 3 195 c4 271 -13 330 -102 371 -73 33 -171 15 -220 -40 -11 -11 -23 -21 -29 -21 -6 0 -8 56 -6 147 3 93 0 147 -6 148 -5 0 -48 -1 -95 -4z"/> <path d="M9730 6321 l-75 -6 -3 -389 c-1 -215 1 -392 5 -396 14 -11 144 1 148 13 15 53 14 52 43 25 52 -49 107 -63 182 -47 102 22 169 105 191 237 19 123 -26 259 -107 315 -57 40 -143 48 -201 18 -23 -11 -44 -25 -48 -31 -3 -5 -13 -10 -21 -10 -14 0 -15 19 -12 137 2 117 1 138 -12 139 -8 0 -49 -2 -90 -5z m258 -381 c85 -80 57 -257 -44 -276 -40 -7 -69 1 -94 29 -17 18 -20 35 -20 123 0 100 1 103 28 123 36 27 101 28 130 1z"/> <path d="M5880 6313 c-1 -5 0 -160 0 -347 1 -374 3 -390 62 -426 26 -16 50 -20 114 -20 53 0 85 4 92 13 6 7 7 36 4 72 l-7 60 -37 3 c-27 2 -38 8 -39 20 -1 9 0 155 1 325 l2 307 -96 0 c-53 0 -96 -3 -96 -7z"/> <path d="M4490 6288 c0 -2 -1 -173 -3 -380 -1 -245 2 -379 8 -380 6 -2 109 -1 230 2 204 5 224 7 274 30 75 33 111 90 111 176 0 34 -7 77 -15 97 -16 39 -62 77 -93 77 -40 0 -35 32 8 53 40 20 61 60 67 123 6 83 -23 140 -92 174 -48 24 -59 25 -272 28 -123 2 -223 2 -223 0z m130 -148 c0 -20 5 -30 15 -30 8 0 15 -5 15 -11 0 -6 -9 -8 -20 -4 -16 5 -20 2 -20 -17 1 -13 10 -39 20 -58 11 -19 22 -43 26 -52 3 -10 10 -18 14 -18 4 0 10 -15 12 -34 3 -27 0 -36 -14 -39 -10 -3 -18 -12 -18 -21 0 -9 -4 -16 -10 -16 -5 0 -10 -14 -10 -30 0 -20 -9 -39 -25 -54 -27 -25 -35 -62 -11 -53 13 5 66 -37 66 -53 0 -20 -42 -33 -65 -20 -31 17 -36 50 -37 249 0 147 5 192 28 274 9 29 34 20 34 -13z m30 15 c0 -8 -4 -15 -10 -15 -5 0 -10 7 -10 15 0 8 5 15 10 15 6 0 10 -7 10 -15z m225 -36 c24 -23 25 -81 2 -107 -14 -15 -36 -21 -95 -24 -42 -3 -84 -7 -92 -9 -12 -3 -16 10 -18 70 -2 41 -1 79 2 86 3 8 31 10 93 7 68 -3 92 -8 108 -23z m43 -129 c-22 -17 -18 -40 7 -40 15 0 28 -27 19 -41 -3 -5 -15 -9 -27 -8 -12 0 -16 3 -9 6 17 7 15 33 -2 33 -23 0 -29 19 -13 38 7 9 17 26 21 37 6 15 9 17 16 6 5 -10 1 -20 -12 -31z m-28 -153 c22 -11 25 -20 28 -68 4 -79 -11 -90 -135 -99 -54 -4 -101 -4 -105 -1 -6 5 -11 114 -9 173 1 16 11 17 99 12 53 -3 108 -11 122 -17z"/> <path d="M6597 6283 c-9 -8 -9 -66 0 -117 l6 -38 106 3 106 4 0 -305 1 -305 97 -1 c93 -1 98 0 103 22 3 13 3 27 0 32 -3 5 -6 132 -6 283 l-1 274 108 0 108 0 0 75 0 75 -311 3 c-171 1 -313 -1 -317 -5z"/> <path d="M6279 6266 c-1 0 -7 -39 -13 -86 l-11 -85 -40 0 -40 0 -3 -67 -3 -67 43 -3 43 -3 -4 -130 c-5 -181 18 -253 92 -292 35 -18 144 -23 210 -10 42 9 44 16 25 97 l-12 51 -47 -6 c-71 -10 -79 7 -79 168 l0 129 68 -3 c59 -4 67 -2 66 14 0 9 -1 42 -2 73 l-2 56 -62 -4 -63 -3 0 84 0 85 -82 2 c-46 1 -84 1 -84 0z m102 -197 c10 0 11 -2 2 -6 -20 -7 -15 -20 10 -27 21 -6 21 -7 5 -20 -10 -7 -18 -22 -17 -32 0 -11 3 -13 6 -6 6 15 36 16 31 0 -6 -16 -49 -27 -82 -21 -21 4 -26 11 -26 34 0 15 4 38 9 51 5 13 12 32 16 43 6 19 7 19 19 3 7 -10 19 -18 27 -19z"/> <path d="M5379 6096 c-83 -30 -142 -83 -167 -151 -51 -140 -23 -279 72 -363 56 -49 113 -65 213 -60 97 5 148 25 200 77 53 52 73 110 73 207 0 75 -4 94 -30 148 -33 70 -81 112 -155 138 -59 20 -155 22 -206 4z m171 -161 c45 -48 47 -190 3 -241 -21 -24 -32 -29 -73 -29 -57 0 -82 19 -98 74 -23 75 -6 168 38 203 34 28 101 24 130 -7z"/> <path d="M8908 6096 c-15 -6 -41 -25 -58 -41 -32 -31 -46 -27 -52 15 -3 24 -6 25 -76 25 l-74 0 1 -278 c0 -153 3 -282 5 -285 2 -4 44 -7 93 -7 l88 0 0 194 0 195 34 23 c47 32 86 30 108 -4 16 -24 18 -52 18 -217 l0 -189 90 0 90 0 0 184 c0 101 1 189 3 196 3 18 66 53 96 53 19 0 32 -9 47 -32 19 -31 20 -46 17 -218 l-3 -185 90 0 90 0 0 230 0 230 -27 46 c-17 28 -41 53 -62 63 -72 34 -178 12 -239 -50 l-28 -28 -26 33 c-15 18 -41 40 -59 47 -40 17 -129 17 -166 0z"/> <path d="M7970 5888 c0 -118 5 -230 11 -251 16 -60 61 -104 120 -116 28 -6 60 -9 72 -7 12 3 34 7 49 10 14 3 47 22 73 42 26 19 50 33 53 29 4 -3 11 -20 17 -38 10 -32 10 -32 82 -33 50 0 74 4 77 12 3 7 0 55 -5 106 -6 51 -9 174 -7 273 l3 180 -95 0 -95 0 0 -197 c0 -185 -1 -198 -20 -212 -25 -19 -77 -30 -104 -21 -40 12 -45 39 -42 243 l2 192 -95 0 -96 0 0 -212z"/> </g> </svg>