<?xml version="1.0" standalone="no"?> <!DOCTYPE svg PUBLIC "-//W3C//DTD SVG 20010904//EN" "http://www.w3.org/TR/2001/REC-SVG-20010904/DTD/svg10.dtd"> <svg version="1.0" xmlns="http://www.w3.org/2000/svg" width="1800.000000pt" height="1800.000000pt" viewBox="0 0 1800.000000 1800.000000" preserveAspectRatio="xMidYMid meet"> <g transform="translate(0.000000,1800.000000) scale(0.100000,-0.100000)" fill="#ffffff" stroke="none"> <path d="M4530 11128 c-131 -47 -214 -135 -256 -268 l-14 -45 -6 -135 c-5 -124 -20 -214 -44 -265 -5 -11 -14 -31 -20 -45 -6 -14 -18 -37 -28 -52 -9 -15 -35 -55 -56 -90 -47 -74 -96 -140 -113 -151 -7 -4 -13 -12 -13 -17 0 -5 -24 -44 -53 -87 -52 -78 -118 -184 -131 -213 -11 -25 -31 -57 -45 -74 l-13 -16 -428 1 -427 1 -68 -33 -67 -34 -44 -55 c-24 -30 -44 -59 -44 -65 0 -5 -7 -23 -15 -39 l-15 -29 0 -892 1 -892 17 -34 c53 -104 132 -177 216 -200 l41 -11 195 3 195 4 -1 -54 c-1 -29 -9 -77 -19 -107 l-17 -53 5 -73 c2 -40 11 -91 19 -112 l15 -39 48 -43 47 -44 70 -21 71 -21 36 7 c20 3 53 11 74 17 l38 12 83 90 c99 109 217 242 269 305 21 25 55 65 75 89 l37 42 700 3 700 2 50 19 c92 33 150 67 207 119 57 52 128 148 128 172 0 7 6 18 14 24 14 12 17 26 35 176 l11 89 44 46 c84 87 118 185 120 350 l1 85 31 40 c33 43 60 99 88 182 l18 53 -5 92 c-3 51 -9 110 -13 131 l-6 38 19 22 c136 151 111 487 -48 661 l-50 55 -70 40 c-39 23 -76 41 -82 41 -7 0 -32 7 -56 16 l-44 15 -321 -1 c-177 -1 -327 -1 -333 -1 -15 1 -18 37 -4 46 5 3 13 20 16 38 4 17 15 59 25 92 10 33 24 92 30 131 l13 71 -6 149 -5 149 -27 85 c-27 89 -81 204 -102 222 -7 6 -13 17 -13 24 0 17 -92 121 -134 151 -17 12 -36 26 -41 30 -25 19 -96 53 -163 77 l-73 26 -107 -1 -107 -1 -55 -20z m273 -84 l72 -16 46 -29 c25 -16 50 -29 54 -29 5 0 41 -33 80 -74 l72 -75 40 -78 40 -78 21 -85 c11 -47 26 -124 33 -173 l12 -87 -16 -117 c-10 -64 -22 -122 -27 -127 -6 -6 -10 -20 -10 -32 0 -12 -13 -61 -30 -107 -16 -47 -30 -101 -30 -121 l0 -36 23 0 c340 -6 741 -20 772 -27 61 -15 117 -47 179 -104 l57 -52 34 -71 c38 -81 49 -132 46 -229 l-1 -68 -21 -62 c-12 -34 -35 -82 -51 -107 l-30 -44 12 -92 12 -91 -12 -74 -13 -73 -29 -56 c-17 -30 -41 -67 -55 -82 l-25 -27 -3 -113 -3 -113 -16 -30 c-9 -16 -16 -37 -16 -46 0 -18 -50 -97 -97 -153 l-33 -40 0 -60 c-1 -123 -41 -221 -131 -319 l-58 -64 -93 -47 -93 -48 -708 -1 -708 -2 -87 -91 c-48 -50 -141 -153 -207 -229 -65 -76 -141 -155 -168 -176 l-49 -39 -49 0 -50 0 -32 23 c-18 12 -34 26 -36 30 -1 4 -13 17 -24 28 l-21 20 1 92 c1 51 7 106 13 122 6 17 14 71 17 121 l6 91 -159 6 c-88 4 -201 7 -252 7 l-93 0 -32 14 c-18 7 -52 35 -75 61 l-42 48 -9 36 -9 36 -7 806 -6 806 11 64 12 64 26 36 c80 108 79 108 569 109 l403 1 29 24 c15 14 54 62 85 107 31 46 95 137 141 203 46 66 94 139 106 163 13 23 26 42 30 42 4 0 11 10 14 23 4 12 31 54 59 92 28 39 65 99 81 135 l28 65 8 75 c4 41 14 130 23 197 l17 123 21 47 21 48 56 55 57 55 69 16 c92 22 122 22 208 3z"/> <path d="M4610 10863 c-64 -45 -76 -84 -85 -263 -3 -69 -13 -156 -21 -195 -28 -127 -44 -156 -299 -517 -55 -78 -102 -146 -105 -152 -3 -6 -17 -30 -32 -53 -16 -24 -28 -45 -28 -47 0 -3 -13 -24 -29 -48 -40 -60 -80 -130 -87 -151 -4 -10 -18 -24 -33 -31 l-26 -13 -461 2 -460 2 -18 -12 -17 -13 0 -843 1 -843 12 -8 c7 -4 172 -8 366 -8 193 0 352 -3 352 -7 -1 -13 -27 -154 -38 -203 -5 -25 -17 -81 -26 -125 -9 -44 -22 -105 -29 -136 -7 -31 -11 -61 -9 -68 l4 -11 19 14 c11 7 30 28 43 45 39 52 200 242 264 311 18 19 61 68 95 108 l61 72 741 0 740 0 40 21 c57 30 93 66 123 124 l26 50 0 86 0 86 -22 28 c-12 15 -22 34 -22 41 0 14 49 44 71 44 22 0 88 61 118 110 l31 50 0 76 0 75 -30 54 c-38 69 -38 69 13 94 159 79 205 260 101 398 -13 17 -24 40 -24 51 l0 19 40 19 41 19 33 50 c18 28 38 75 46 106 l13 56 -14 54 c-23 95 -70 155 -149 191 l-45 21 -482 -6 -483 -6 -5 9 c-3 5 -1 58 6 117 l11 107 40 95 c22 53 44 110 49 126 4 17 18 64 29 105 l21 75 1 90 1 90 -16 75 c-44 202 -115 320 -227 377 l-55 27 -75 3 -75 3 -25 -17z m135 -740 c-3 -32 -12 -74 -20 -93 -7 -19 -23 -69 -35 -110 -13 -41 -26 -84 -30 -95 -5 -11 -18 -54 -31 -95 -12 -41 -28 -93 -35 -115 -13 -43 -65 -216 -91 -305 -8 -30 -22 -70 -29 -88 -8 -18 -14 -40 -14 -48 0 -8 -10 -36 -21 -62 l-21 -46 10 -16 10 -15 38 3 c100 6 372 19 399 18 l30 -1 3 -22 3 -21 -48 -54 c-53 -60 -69 -79 -128 -153 -22 -27 -42 -52 -45 -55 -19 -19 -111 -133 -167 -207 -79 -103 -91 -119 -181 -234 -37 -48 -92 -119 -122 -159 -30 -40 -60 -77 -66 -84 -6 -6 -47 -61 -92 -121 -45 -61 -94 -125 -109 -144 -16 -19 -36 -47 -46 -63 -10 -16 -22 -35 -27 -41 -39 -46 -50 -61 -50 -67 0 -4 -12 -12 -26 -19 l-26 -11 7 32 c10 52 65 229 85 273 10 22 32 83 50 135 17 52 36 100 40 105 5 6 13 29 19 50 5 22 30 96 55 165 24 69 50 141 56 160 7 19 18 48 26 63 39 80 33 81 -237 63 -123 -8 -225 -13 -227 -11 -9 8 8 51 28 73 12 13 43 51 70 86 27 35 60 76 74 91 14 15 26 32 26 36 0 5 15 26 34 46 18 21 88 115 154 208 67 94 140 197 164 229 90 124 180 252 194 277 6 11 20 30 31 42 11 12 30 40 43 62 13 22 47 72 75 110 28 39 73 106 99 150 41 66 89 129 104 134 2 1 1 -25 -3 -56z m254 -849 c7 9 21 16 31 16 10 0 23 7 30 15 16 19 39 19 60 0 l17 -16 12 15 13 15 19 -12 19 -11 12 12 c16 16 43 15 58 -3 l13 -15 11 8 c6 5 45 7 86 4 41 -2 93 -3 115 -3 22 1 59 -1 82 -4 l43 -6 40 -38 41 -38 1 -119 c1 -65 -1 -152 -5 -193 l-7 -74 -15 -17 c-8 -9 -15 -30 -15 -47 l0 -31 -15 -6 c-8 -3 -15 -14 -15 -24 0 -10 -9 -35 -20 -56 l-19 -39 4 -43 4 -43 -9 -6 c-6 -3 -10 -17 -10 -31 l0 -25 -15 -5 -15 -6 0 -29 0 -29 15 0 c21 0 19 -13 -5 -35 -11 -10 -20 -26 -20 -35 0 -10 -9 -28 -19 -41 l-19 -24 9 -16 8 -16 -24 -11 -24 -11 -11 -43 c-7 -24 -21 -62 -33 -85 l-22 -43 -17 0 c-10 0 -23 -9 -30 -20 l-13 -20 -23 0 c-12 0 -25 -7 -28 -15 l-6 -15 -33 0 c-17 0 -45 -6 -61 -14 l-29 -15 -50 3 c-27 2 -56 5 -64 7 -8 2 -19 -5 -25 -16 l-11 -20 -48 6 -48 5 -6 -9 c-7 -11 -54 1 -74 19 l-16 14 -17 -6 -17 -7 5 -14 6 -14 -16 -6 c-9 -3 -28 1 -43 10 l-26 15 -46 -5 -46 -5 -7 11 c-9 14 -63 15 -71 1 -9 -15 -25 -2 -25 21 0 10 -9 24 -20 31 l-20 13 0 26 c0 31 26 85 57 119 29 31 29 46 2 53 l-21 6 7 10 c8 14 35 14 35 1 0 -5 5 -10 10 -10 6 0 10 7 10 15 0 17 70 95 84 95 13 0 66 51 66 63 0 6 8 16 18 23 l17 13 -12 20 c-20 32 -16 39 18 37 l31 -1 12 19 c6 10 21 30 34 44 12 14 22 31 22 38 0 7 8 21 19 31 10 10 22 37 26 61 4 23 11 42 16 42 5 0 20 17 34 38 l26 39 -7 17 c-3 9 -2 22 4 29 6 6 13 29 17 50 l7 37 14 0 c8 0 15 8 16 18 0 9 2 33 4 52 2 19 4 43 4 53 1 10 -15 40 -34 66 -20 27 -36 53 -36 59 0 5 -10 17 -22 26 l-23 17 13 5 c18 8 15 22 -13 52 -26 28 -29 39 -18 67 l6 17 31 -37 32 -37 13 16z m-1426 -181 c4 -20 3 -41 -1 -47 -4 -6 -7 -20 -8 -31 0 -11 -1 -37 -2 -57 l-2 -36 -27 -32 -26 -31 15 -33 16 -32 -15 -28 -14 -28 22 -46 c22 -44 25 -52 28 -77 0 -6 17 -19 37 -30 l36 -19 -5 -23 -4 -22 16 -14 c9 -8 24 -17 34 -20 l17 -6 0 -26 c0 -14 7 -40 16 -57 9 -16 17 -51 18 -77 1 -25 5 -51 9 -58 l7 -12 -14 -8 -15 -8 -6 -70 c-4 -39 -8 -93 -10 -120 -2 -28 -8 -63 -14 -78 l-11 -27 -28 0 c-15 0 -34 -6 -40 -12 l-13 -13 -52 -1 c-57 -1 -100 -10 -134 -26 l-22 -11 -33 15 c-18 9 -44 19 -58 23 -14 4 -32 13 -40 20 -8 7 -24 15 -35 17 l-20 3 -3 20 c-2 11 -10 27 -18 36 -8 9 -18 42 -22 75 l-7 59 -18 3 -17 3 0 -30 c0 -17 -4 -31 -10 -31 -5 0 -10 10 -10 23 0 38 12 67 26 67 8 0 14 7 14 16 l0 16 -15 -6 -15 -5 0 15 c0 8 6 17 13 20 l13 5 1 51 1 52 18 13 18 13 -23 24 -23 24 7 30 6 30 -10 7 -11 6 9 17 c19 38 27 79 21 102 -18 65 13 260 40 260 6 0 10 14 10 30 0 17 -4 30 -10 30 -5 0 -10 7 -10 15 0 8 5 15 10 15 6 0 10 9 10 19 0 11 5 23 11 27 6 3 19 26 29 50 l19 44 27 0 c15 0 41 9 59 20 l32 20 23 -20 c28 -24 22 -25 76 4 l46 24 28 -9 28 -10 5 -36z"/> <path d="M14680 9489 c-25 -4 -79 -8 -121 -8 l-77 -1 -9 -12 -9 -13 7 -200 c9 -260 9 -668 0 -820 l-7 -120 8 -17 9 -18 99 0 100 0 20 20 c11 11 20 31 20 45 l0 25 13 0 c7 0 26 -14 43 -31 16 -16 49 -39 73 -50 l44 -19 77 0 77 0 42 15 c286 101 342 625 89 820 -107 82 -259 83 -359 4 -20 -16 -45 -29 -55 -29 l-17 0 7 196 6 196 -11 14 c-6 8 -14 13 -18 13 -3 -1 -26 -5 -51 -10z m257 -560 c41 -15 73 -48 94 -97 l19 -44 0 -73 0 -72 -20 -46 c-25 -57 -68 -93 -119 -102 l-39 -6 -42 12 -41 13 -20 27 -19 27 0 152 0 151 27 25 c14 13 38 27 52 30 14 3 31 7 36 9 20 7 44 5 72 -6z"/> <path d="M8915 9481 l-100 -6 1 -525 0 -525 25 -50 25 -50 50 -28 49 -27 122 2 122 3 13 13 12 12 -2 69 c-2 38 -7 82 -11 98 l-7 28 -48 6 -47 5 -10 15 -10 14 3 465 c1 256 -1 471 -5 478 l-8 12 -37 -2 c-20 -1 -82 -4 -137 -7z"/> <path d="M11066 9476 l-119 -11 1 -584 1 -584 9 -9 c7 -7 156 -12 270 -8 l12 0 0 288 0 289 23 20 c33 30 86 53 123 53 l34 0 32 -29 33 -30 0 -293 0 -293 143 -3 142 -3 1 13 c1 7 1 146 0 308 l-2 295 -11 50 c-14 66 -36 109 -75 150 l-32 33 -66 22 -66 22 -61 -11 c-71 -12 -130 -40 -174 -83 l-32 -30 -8 14 c-8 12 -7 277 1 357 2 20 2 44 -1 54 l-5 17 -27 -2 c-15 0 -80 -6 -146 -12z"/> <path d="M6728 9429 l-11 -7 7 -343 c3 -189 2 -441 -2 -559 l-9 -215 9 -12 10 -12 274 0 275 -1 86 15 85 15 51 26 c29 14 69 41 89 61 l37 36 22 54 22 54 -6 87 -5 87 -19 38 -19 37 -53 40 c-29 22 -61 40 -71 40 -11 0 -22 5 -25 11 l-7 10 47 42 c26 23 59 60 73 82 l26 40 0 95 0 95 -19 35 c-46 88 -87 115 -220 144 l-70 15 -283 -2 c-156 -1 -289 -5 -294 -8z m562 -244 c13 -11 29 -34 36 -52 l14 -32 -6 -30 c-3 -16 -19 -42 -36 -58 l-29 -28 -122 -7 -122 -6 -10 13 -11 13 2 99 c1 54 2 102 3 107 l1 8 129 -3 129 -4 22 -20z m21 -428 c20 -8 44 -25 53 -38 l16 -23 0 -52 0 -52 -25 -31 c-35 -41 -69 -49 -215 -53 l-125 -3 -7 120 -6 120 10 18 10 19 126 -5 127 -5 36 -15z"/> <path d="M9893 9426 c-7 -11 -4 -218 3 -225 2 -2 75 -5 161 -5 l158 -1 2 -445 c1 -245 2 -451 2 -458 l1 -13 148 3 147 3 0 455 0 455 163 3 162 2 2 93 c1 100 0 128 -7 135 -2 3 -214 5 -470 6 l-466 2 -6 -10z"/> <path d="M9405 9390 c-3 -5 -8 -56 -12 -112 -3 -57 -10 -111 -15 -122 l-10 -18 -49 4 -50 5 -7 -13 c-4 -7 -5 -54 -2 -106 l5 -93 55 -5 55 -5 5 -240 5 -240 15 -30 c28 -59 64 -97 114 -122 l51 -26 110 0 111 -1 48 14 c26 7 50 19 53 27 6 15 -22 157 -36 183 l-8 15 -74 0 -74 0 -17 35 -18 35 0 172 0 172 11 7 c6 3 51 6 100 5 l90 -2 -3 103 -3 103 -90 5 -90 5 -1 110 c0 61 -3 118 -7 128 l-6 17 -125 0 -125 0 -6 -10z"/> <path d="M8063 9146 c-182 -66 -264 -182 -289 -409 l-7 -58 12 -57 c35 -165 137 -284 289 -336 l52 -18 118 4 117 4 66 31 66 30 55 55 55 56 33 78 32 78 -4 121 -4 120 -36 75 c-61 127 -132 187 -271 230 l-62 20 -80 -1 -80 -1 -62 -22z m227 -227 c20 -11 45 -34 54 -50 l18 -30 5 -73 c3 -40 2 -99 -1 -130 l-8 -57 -36 -38 -37 -39 -45 -7 -45 -6 -35 15 c-44 18 -62 39 -83 96 l-17 46 0 64 0 65 19 50 c40 104 124 142 211 94z"/> <path d="M13372 9151 c-23 -9 -62 -34 -86 -54 -25 -20 -51 -37 -60 -37 l-14 0 -7 33 c-4 17 -12 38 -17 45 l-10 12 -93 0 c-52 0 -99 -2 -107 -5 l-13 -5 3 -421 c1 -232 5 -425 8 -430 l5 -9 135 0 134 0 1 13 c1 6 1 136 -1 287 l-2 275 23 21 c45 38 78 54 118 54 l40 0 31 -37 32 -38 -5 -276 c-2 -152 -1 -282 3 -289 l8 -13 128 2 129 3 6 10 c4 6 5 134 2 284 l-6 273 14 17 c7 9 31 27 51 40 l38 24 39 0 39 0 32 -37 32 -36 -2 -276 c-2 -152 -2 -282 -1 -288 l1 -13 135 0 134 0 9 18 9 17 -8 165 c-4 91 -8 238 -8 326 l-1 162 -18 38 c-10 22 -27 54 -38 72 l-19 33 -54 26 -54 27 -58 4 -57 4 -54 -17 c-64 -22 -119 -55 -146 -89 -28 -36 -42 -33 -85 18 l-37 44 -55 21 -56 21 -62 -1 -62 -1 -43 -17z"/> <path d="M11954 9138 l-9 -13 6 -330 6 -330 20 -45 c28 -63 66 -105 116 -129 l43 -21 91 0 92 0 68 36 c37 19 79 46 94 60 34 33 46 30 54 -12 3 -20 12 -45 18 -55 l12 -19 107 0 108 0 5 23 c3 12 3 58 -1 102 -3 44 -8 224 -10 400 -1 176 -3 326 -3 333 l-1 12 -139 0 -139 0 -9 -12 -10 -13 9 -215 c5 -118 7 -246 5 -284 l-5 -70 -27 -22 c-16 -12 -47 -28 -71 -34 l-42 -12 -31 7 -31 7 -22 31 -23 32 0 290 0 290 -136 3 -136 3 -9 -13z"/> </g> </svg>