<svg version="1.1" id="Layer_1" xmlns="http://www.w3.org/2000/svg" xmlns:xlink="http://www.w3.org/1999/xlink" x="0px" y="0px"
	 width="100%" viewBox="0 0 1024 1024" enable-background="new 0 0 1024 1024" xml:space="preserve">
<path fill="#FEFFFF" opacity="1.000000" stroke="none" 
	d="
M543.000000,1025.000000 
	C362.000000,1025.000000 181.500000,1025.000000 1.000000,1025.000000 
	C1.000000,683.666687 1.000000,342.333344 1.000000,1.000000 
	C342.333344,1.000000 683.666687,1.000000 1025.000000,1.000000 
	C1025.000000,342.333344 1025.000000,683.666687 1025.000000,1025.000000 
	C864.500000,1025.000000 704.000000,1025.000000 543.000000,1025.000000 
M480.538116,551.894165 
	C493.147095,545.493225 498.059052,532.103455 492.813416,518.432251 
	C488.232056,506.492249 474.948425,500.273895 461.239716,503.941895 
	C446.466980,507.893402 441.155121,522.679565 444.286377,535.952148 
	C447.178864,548.212830 459.012726,555.736816 472.777313,553.900452 
	C473.509003,553.725342 474.240723,553.550232 475.493225,553.539734 
	C475.985840,553.332275 476.478455,553.124817 477.786835,552.883301 
	C478.271484,552.651428 478.756104,552.419556 479.464447,552.340393 
	C479.673737,552.307129 479.792816,552.185364 480.538116,551.894165 
M396.088593,487.931671 
	C392.170227,487.931671 388.251892,487.931671 384.390076,487.931671 
	C384.390076,510.093384 384.390076,531.463867 384.390076,553.478882 
	C394.153412,553.478882 403.479401,553.706360 412.784943,553.368652 
	C416.592926,553.230469 420.356537,551.870422 424.798706,551.015625 
	C432.745605,549.163635 437.057587,545.077576 438.101593,537.714050 
	C439.367554,528.784973 436.428162,521.873047 427.146393,518.460876 
	C428.117981,517.681641 428.626892,517.269531 429.139923,516.862671 
	C435.126160,512.115967 436.122009,505.777313 434.501831,498.864716 
	C432.918182,492.107880 427.775391,488.858887 421.423737,488.380859 
	C413.324493,487.771362 405.151611,488.140381 396.088593,487.931671 
M231.995468,610.509399 
	C235.641785,605.279053 240.453049,603.135437 246.939957,603.954285 
	C252.525482,604.659424 258.214386,604.815002 263.854034,604.770264 
	C279.663239,604.644775 295.470184,604.263611 311.278748,604.032898 
	C328.569031,603.780518 341.385529,591.142029 342.093048,573.789673 
	C342.166748,571.982361 342.879578,569.819519 344.057770,568.503906 
	C349.544525,562.377197 352.193298,555.404602 352.112671,547.143555 
	C352.087311,544.543152 353.029755,541.616272 354.405823,539.377686 
	C358.854462,532.140442 361.027557,524.664612 359.289856,516.110046 
	C358.884552,514.114929 359.641296,511.539703 360.655640,509.658539 
	C365.566193,500.551575 366.102142,491.111420 362.137054,481.809509 
	C356.953278,469.648590 347.272949,463.340851 334.006744,463.075317 
	C323.578339,462.866577 313.142456,463.033417 302.320831,463.033417 
	C302.839722,461.134583 303.176880,459.866333 303.532928,458.603424 
	C306.631134,447.614136 308.449127,436.493469 305.912445,425.147827 
	C302.819519,411.314514 296.823914,399.431824 283.114441,393.080719 
	C270.504913,387.239197 257.444519,389.232788 249.141174,398.299744 
	C244.036804,403.873474 243.353592,410.896393 243.171219,417.885925 
	C242.970810,425.567139 241.404892,432.644409 237.014969,439.089294 
	C229.711075,449.812164 222.700302,460.736725 215.265259,471.365936 
	C214.221542,472.858063 211.488739,473.865173 209.517136,473.899109 
	C196.355209,474.125549 183.186462,473.919281 170.022339,474.067596 
	C159.395767,474.187286 151.041931,482.645935 151.030518,493.135284 
	C150.997299,523.633118 151.016815,554.130920 151.058182,584.628662 
	C151.060623,586.437134 151.206192,588.307922 151.677536,590.043030 
	C154.603287,600.813232 165.360153,606.594238 178.318726,604.646606 
	C181.687073,604.140381 185.133423,604.153137 189.440079,603.868225 
	C188.593201,608.170898 187.925476,611.524902 187.273819,614.882019 
	C185.701324,622.982849 188.892258,630.333008 195.393509,633.604431 
	C202.203323,637.031250 209.842682,635.970215 214.564362,630.658203 
	C220.305603,624.199219 225.859589,617.573669 231.995468,610.509399 
M813.976074,519.745056 
	C813.581177,513.310730 812.087952,507.137848 805.568054,504.446503 
	C796.923706,500.878235 789.359253,503.730621 782.882263,510.372681 
	C779.443359,505.005859 774.580627,502.235931 768.802307,503.123749 
	C763.478210,503.941803 758.383301,506.251740 753.215210,507.895691 
	C752.115356,503.432526 749.632812,502.718170 739.379700,504.799408 
	C739.379700,520.690430 739.379700,536.597107 739.379700,552.680786 
	C744.903259,552.680786 750.094543,552.680786 755.639465,552.680786 
	C755.639465,551.007263 755.642639,549.698303 755.638916,548.389343 
	C755.616089,540.227539 755.531433,532.065247 755.594055,523.904114 
	C755.623901,520.013611 759.114502,516.633423 762.901855,516.733765 
	C767.334167,516.851013 768.300964,519.917114 768.381958,523.579956 
	C768.451904,526.743591 768.487671,529.908386 768.495728,533.072754 
	C768.512451,539.648193 768.500732,546.223633 768.500732,552.784668 
	C774.375488,552.784668 779.319031,552.784668 784.837646,552.784668 
	C784.837646,550.785889 784.838013,549.004089 784.837585,547.222290 
	C784.835815,539.393555 784.863953,531.564575 784.820496,523.736084 
	C784.794006,518.979126 788.086548,517.336731 791.847595,516.863220 
	C795.997131,516.340759 797.253967,519.409729 797.416748,522.915039 
	C797.602112,526.905762 797.646790,530.904724 797.673584,534.900635 
	C797.713379,540.850464 797.683838,546.800720 797.683838,552.792114 
	C803.361389,552.792114 808.457520,552.792114 813.991211,552.792114 
	C813.991211,541.916809 813.991211,531.302917 813.976074,519.745056 
M862.415894,504.906372 
	C855.150635,501.607269 848.294983,502.670563 841.114685,507.768555 
	C841.114685,499.670105 841.114685,492.467377 841.114685,484.783508 
	C835.277649,485.139862 830.091980,485.456421 824.912842,485.772614 
	C824.912842,508.541687 824.912842,530.625122 824.912842,552.683899 
	C836.720032,553.779053 837.431152,553.587891 839.856812,548.757141 
	C849.355957,555.576355 858.875183,555.722778 866.133484,549.245239 
	C878.027527,538.630737 876.346863,511.879486 862.415894,504.906372 
M641.033203,504.053894 
	C641.033203,497.798981 641.033203,491.544037 641.033203,484.967804 
	C635.086792,485.333649 629.827026,485.657227 624.700012,485.972656 
	C624.700012,508.470795 624.700012,530.567261 624.700012,552.625244 
	C630.396606,552.625244 635.615967,552.625244 641.056274,552.625244 
	C641.056274,542.757812 640.999756,533.275757 641.084839,523.794922 
	C641.117615,520.141479 644.725220,516.945312 648.756287,516.849182 
	C653.001587,516.747986 654.675964,519.283142 654.786865,523.163208 
	C654.881958,526.490784 654.898132,529.821228 654.906860,533.150513 
	C654.924011,539.731812 654.911926,546.313171 654.911926,552.719727 
	C660.810791,552.719727 665.872375,552.719727 671.080261,552.719727 
	C671.080261,540.890137 671.481995,529.398804 670.963806,517.949097 
	C670.475830,507.168182 662.048889,501.164062 651.525024,503.691589 
	C647.970215,504.545349 644.711792,506.632935 641.028320,508.286652 
	C641.028320,507.154510 641.028320,506.038818 641.033203,504.053894 
M714.871643,504.082764 
	C712.021851,503.611511 711.639038,505.188416 711.662598,507.566010 
	C711.751709,516.550842 711.771851,525.538269 711.643738,534.522278 
	C711.589417,538.332214 708.039978,541.057983 703.718933,540.999390 
	C699.720825,540.945190 698.062012,538.591125 698.003296,534.923706 
	C697.885925,527.603516 697.878967,520.281555 697.837646,512.960205 
	C697.821289,510.055084 697.834961,507.149750 697.834961,504.369629 
	C691.865967,504.369629 686.773071,504.369629 681.433777,504.369629 
	C681.433777,516.437927 680.774231,528.255676 681.625183,539.963684 
	C682.425049,550.969543 690.737305,556.336975 701.470520,553.525146 
	C705.818848,552.385986 709.769104,549.727234 713.983398,547.720520 
	C714.463257,549.155457 715.084961,551.014465 715.684937,552.808716 
	C720.113464,552.808716 724.342224,552.808716 728.350708,552.808716 
	C728.350708,536.419556 728.350708,520.383728 728.350708,504.082092 
	C723.753845,504.082092 719.771362,504.082092 714.871643,504.082764 
M575.507263,501.476990 
	C577.798889,501.476990 580.090576,501.476990 582.966919,501.476990 
	C582.966919,518.907532 582.966919,535.779175 582.966919,552.775879 
	C588.809631,552.775879 594.060425,552.775879 599.815796,552.775879 
	C599.815796,535.662048 599.815796,518.771362 599.815796,501.292480 
	C606.190063,501.292480 612.078247,501.292480 618.062683,501.292480 
	C618.062683,496.581360 618.062683,492.467621 618.062683,488.407593 
	C600.015198,488.407593 582.172974,488.407593 564.425537,488.407593 
	C564.425537,492.838898 564.425537,496.792145 564.425537,501.464203 
	C567.970032,501.464203 571.257202,501.464203 575.507263,501.476990 
M556.627380,553.907959 
	C558.996216,553.339722 561.365051,552.771545 564.082581,552.119690 
	C563.172302,547.832031 562.368225,544.044678 561.568481,540.277466 
	C554.287903,541.664551 551.874146,540.833374 551.660828,536.546814 
	C551.341309,530.124146 551.577820,523.673767 551.577820,516.939575 
	C555.489380,516.735413 558.859497,516.559509 562.148682,516.387878 
	C562.148682,512.063416 562.148682,508.275635 562.148682,504.226654 
	C558.697510,504.064056 555.464905,503.911774 551.620972,503.730682 
	C551.620972,498.966461 551.620972,494.574432 551.620972,490.308624 
	C546.227844,490.308624 541.484131,490.308624 536.564270,490.308624 
	C536.007812,495.006256 535.489441,499.382629 534.973206,503.740997 
	C532.415039,503.969849 530.330322,504.156372 528.272339,504.340485 
	C528.272339,508.564758 528.272339,512.444580 528.272339,516.321533 
	C530.534912,516.633728 532.436401,516.896118 534.604980,517.195374 
	C534.604980,523.713318 534.517029,529.861023 534.646118,536.004211 
	C534.701538,538.642639 534.837769,541.380920 535.577026,543.884949 
	C537.973694,552.003113 544.290405,555.056213 556.627380,553.907959 
M519.477356,513.499817 
	C519.477356,504.094818 519.477356,494.689819 519.477356,484.955078 
	C513.458313,485.222412 508.370636,485.448364 503.069885,485.683777 
	C503.069885,505.202484 502.915161,524.164429 503.163757,543.121155 
	C503.238770,548.840576 506.648376,552.742920 512.202759,553.483582 
	C516.955994,554.117493 521.882568,553.451538 527.181824,553.352051 
	C526.698975,548.347107 526.339478,544.620850 525.952332,540.607483 
	C520.149109,541.845581 519.186157,538.874756 519.320862,534.476501 
	C519.524536,527.822144 519.440735,521.158997 519.477356,513.499817 
z"/>
<path fill="#9CE1EC" opacity="1.000000" stroke="none" 
	d="
M231.745026,610.764771 
	C225.859589,617.573669 220.305603,624.199219 214.564362,630.658203 
	C209.842682,635.970215 202.203323,637.031250 195.393509,633.604431 
	C188.892258,630.333008 185.701324,622.982849 187.273819,614.882019 
	C187.925476,611.524902 188.593201,608.170898 189.440079,603.868225 
	C185.133423,604.153137 181.687073,604.140381 178.318726,604.646606 
	C165.360153,606.594238 154.603287,600.813232 151.677536,590.043030 
	C151.206192,588.307922 151.060623,586.437134 151.058182,584.628662 
	C151.016815,554.130920 150.997299,523.633118 151.030518,493.135284 
	C151.041931,482.645935 159.395767,474.187286 170.022339,474.067596 
	C183.186462,473.919281 196.355209,474.125549 209.517136,473.899109 
	C211.488739,473.865173 214.221542,472.858063 215.265259,471.365936 
	C222.700302,460.736725 229.711075,449.812164 237.014969,439.089294 
	C241.404892,432.644409 242.970810,425.567139 243.171219,417.885925 
	C243.353592,410.896393 244.036804,403.873474 249.141174,398.299744 
	C257.444519,389.232788 270.504913,387.239197 283.114441,393.080719 
	C296.823914,399.431824 302.819519,411.314514 305.912445,425.147827 
	C308.449127,436.493469 306.631134,447.614136 303.532928,458.603424 
	C303.176880,459.866333 302.839722,461.134583 302.320831,463.033417 
	C313.142456,463.033417 323.578339,462.866577 334.006744,463.075317 
	C347.272949,463.340851 356.953278,469.648590 362.137054,481.809509 
	C366.102142,491.111420 365.566193,500.551575 360.655640,509.658539 
	C359.641296,511.539703 358.884552,514.114929 359.289856,516.110046 
	C361.027557,524.664612 358.854462,532.140442 354.405823,539.377686 
	C353.029755,541.616272 352.087311,544.543152 352.112671,547.143555 
	C352.193298,555.404602 349.544525,562.377197 344.057770,568.503906 
	C342.879578,569.819519 342.166748,571.982361 342.093048,573.789673 
	C341.385529,591.142029 328.569031,603.780518 311.278748,604.032898 
	C295.470184,604.263611 279.663239,604.644775 263.854034,604.770264 
	C258.214386,604.815002 252.525482,604.659424 246.939957,603.954285 
	C240.453049,603.135437 235.641785,605.279053 231.745026,610.764771 
M293.775574,465.375519 
	C298.673798,452.313843 302.238739,439.094788 298.977325,424.966888 
	C296.281128,413.287231 291.200317,403.354706 279.556061,398.240753 
	C266.046997,392.307800 249.828430,397.597443 249.847046,416.148468 
	C249.857681,426.740997 247.352249,436.605835 240.550766,445.469757 
	C233.077164,455.209686 226.642990,465.763397 220.028915,476.136597 
	C218.077103,479.197784 215.920792,480.245544 212.357376,480.188324 
	C198.866730,479.971710 185.370544,480.009369 171.877182,480.085938 
	C163.360992,480.134277 157.210846,485.614777 157.165710,493.811554 
	C156.999680,523.963623 156.976425,554.117981 157.182709,584.269592 
	C157.244202,593.257446 162.627335,598.003540 171.508514,598.023132 
	C179.799576,598.041382 188.090729,598.027039 196.883789,598.027039 
	C195.814301,604.351929 195.418594,610.221924 193.724167,615.689453 
	C192.127625,620.841125 195.334488,626.116821 198.896042,627.948730 
	C203.544266,630.339661 207.198044,628.664978 210.417465,625.097107 
	C217.547195,617.195801 224.891296,609.477722 231.759949,601.356750 
	C233.990051,598.720032 236.164673,597.977112 239.379456,597.989746 
	C262.701813,598.081177 286.024780,598.032349 309.347504,597.990845 
	C324.303802,597.964233 335.780884,586.386230 336.091705,571.437683 
	C336.137848,569.218323 337.201538,566.668335 338.589386,564.892517 
	C343.383759,558.757812 346.015106,552.057007 345.889038,544.194702 
	C345.853210,541.961548 346.162903,539.178162 347.456909,537.562317 
	C353.166992,530.432129 354.338287,522.692993 351.983917,514.085938 
	C351.651184,512.869568 351.743866,511.072205 352.432434,510.112701 
	C359.496674,500.268768 360.353943,490.022644 353.774841,479.844879 
	C347.644958,470.362122 337.943726,468.677399 327.425049,469.150208 
	C316.965088,469.620300 306.485718,469.650208 296.016022,469.916840 
	C293.073486,469.991791 292.558014,468.584747 293.775574,465.375519 
z"/>
<path fill="#4D595D" opacity="1.000000" stroke="none" 
	d="
M813.983643,520.217041 
	C813.991211,531.302917 813.991211,541.916809 813.991211,552.792114 
	C808.457520,552.792114 803.361389,552.792114 797.683838,552.792114 
	C797.683838,546.800720 797.713379,540.850464 797.673584,534.900635 
	C797.646790,530.904724 797.602112,526.905762 797.416748,522.915039 
	C797.253967,519.409729 795.997131,516.340759 791.847595,516.863220 
	C788.086548,517.336731 784.794006,518.979126 784.820496,523.736084 
	C784.863953,531.564575 784.835815,539.393555 784.837585,547.222290 
	C784.838013,549.004089 784.837646,550.785889 784.837646,552.784668 
	C779.319031,552.784668 774.375488,552.784668 768.500732,552.784668 
	C768.500732,546.223633 768.512451,539.648193 768.495728,533.072754 
	C768.487671,529.908386 768.451904,526.743591 768.381958,523.579956 
	C768.300964,519.917114 767.334167,516.851013 762.901855,516.733765 
	C759.114502,516.633423 755.623901,520.013611 755.594055,523.904114 
	C755.531433,532.065247 755.616089,540.227539 755.638916,548.389343 
	C755.642639,549.698303 755.639465,551.007263 755.639465,552.680786 
	C750.094543,552.680786 744.903259,552.680786 739.379700,552.680786 
	C739.379700,536.597107 739.379700,520.690430 739.379700,504.799408 
	C749.632812,502.718170 752.115356,503.432526 753.215210,507.895691 
	C758.383301,506.251740 763.478210,503.941803 768.802307,503.123749 
	C774.580627,502.235931 779.443359,505.005859 782.882263,510.372681 
	C789.359253,503.730621 796.923706,500.878235 805.568054,504.446503 
	C812.087952,507.137848 813.581177,513.310730 813.983643,520.217041 
z"/>
<path fill="#4D585B" opacity="1.000000" stroke="none" 
	d="
M862.757935,505.067078 
	C876.346863,511.879486 878.027527,538.630737 866.133484,549.245239 
	C858.875183,555.722778 849.355957,555.576355 839.856812,548.757141 
	C837.431152,553.587891 836.720032,553.779053 824.912842,552.683899 
	C824.912842,530.625122 824.912842,508.541687 824.912842,485.772614 
	C830.091980,485.456421 835.277649,485.139862 841.114685,484.783508 
	C841.114685,492.467377 841.114685,499.670105 841.114685,507.768555 
	C848.294983,502.670563 855.150635,501.607269 862.757935,505.067078 
M842.684937,518.400635 
	C842.170288,523.209412 841.688721,528.022095 841.131165,532.825867 
	C840.641296,537.046875 841.995056,540.002380 846.460754,540.912537 
	C850.726746,541.781982 855.009705,539.605103 856.238708,535.212585 
	C857.107727,532.106995 857.410095,528.642822 857.063660,525.436157 
	C856.181824,517.273743 850.821838,514.505615 842.684937,518.400635 
z"/>
<path fill="#4D585B" opacity="1.000000" stroke="none" 
	d="
M641.030762,504.488495 
	C641.028320,506.038818 641.028320,507.154510 641.028320,508.286652 
	C644.711792,506.632935 647.970215,504.545349 651.525024,503.691589 
	C662.048889,501.164062 670.475830,507.168182 670.963806,517.949097 
	C671.481995,529.398804 671.080261,540.890137 671.080261,552.719727 
	C665.872375,552.719727 660.810791,552.719727 654.911926,552.719727 
	C654.911926,546.313171 654.924011,539.731812 654.906860,533.150513 
	C654.898132,529.821228 654.881958,526.490784 654.786865,523.163208 
	C654.675964,519.283142 653.001587,516.747986 648.756287,516.849182 
	C644.725220,516.945312 641.117615,520.141479 641.084839,523.794922 
	C640.999756,533.275757 641.056274,542.757812 641.056274,552.625244 
	C635.615967,552.625244 630.396606,552.625244 624.700012,552.625244 
	C624.700012,530.567261 624.700012,508.470795 624.700012,485.972656 
	C629.827026,485.657227 635.086792,485.333649 641.033203,484.967804 
	C641.033203,491.544037 641.033203,497.798981 641.030762,504.488495 
z"/>
<path fill="#4D595D" opacity="1.000000" stroke="none" 
	d="
M715.330261,504.082428 
	C719.771362,504.082092 723.753845,504.082092 728.350708,504.082092 
	C728.350708,520.383728 728.350708,536.419556 728.350708,552.808716 
	C724.342224,552.808716 720.113464,552.808716 715.684937,552.808716 
	C715.084961,551.014465 714.463257,549.155457 713.983398,547.720520 
	C709.769104,549.727234 705.818848,552.385986 701.470520,553.525146 
	C690.737305,556.336975 682.425049,550.969543 681.625183,539.963684 
	C680.774231,528.255676 681.433777,516.437927 681.433777,504.369629 
	C686.773071,504.369629 691.865967,504.369629 697.834961,504.369629 
	C697.834961,507.149750 697.821289,510.055084 697.837646,512.960205 
	C697.878967,520.281555 697.885925,527.603516 698.003296,534.923706 
	C698.062012,538.591125 699.720825,540.945190 703.718933,540.999390 
	C708.039978,541.057983 711.589417,538.332214 711.643738,534.522278 
	C711.771851,525.538269 711.751709,516.550842 711.662598,507.566010 
	C711.639038,505.188416 712.021851,503.611511 715.330261,504.082428 
z"/>
<path fill="#4D595D" opacity="1.000000" stroke="none" 
	d="
M575.025818,501.470581 
	C571.257202,501.464203 567.970032,501.464203 564.425537,501.464203 
	C564.425537,496.792145 564.425537,492.838898 564.425537,488.407593 
	C582.172974,488.407593 600.015198,488.407593 618.062683,488.407593 
	C618.062683,492.467621 618.062683,496.581360 618.062683,501.292480 
	C612.078247,501.292480 606.190063,501.292480 599.815796,501.292480 
	C599.815796,518.771362 599.815796,535.662048 599.815796,552.775879 
	C594.060425,552.775879 588.809631,552.775879 582.966919,552.775879 
	C582.966919,535.779175 582.966919,518.907532 582.966919,501.476990 
	C580.090576,501.476990 577.798889,501.476990 575.025818,501.470581 
z"/>
<path fill="#1A89C5" opacity="1.000000" stroke="none" 
	d="
M556.210022,553.953735 
	C544.290405,555.056213 537.973694,552.003113 535.577026,543.884949 
	C534.837769,541.380920 534.701538,538.642639 534.646118,536.004211 
	C534.517029,529.861023 534.604980,523.713318 534.604980,517.195374 
	C532.436401,516.896118 530.534912,516.633728 528.272339,516.321533 
	C528.272339,512.444580 528.272339,508.564758 528.272339,504.340485 
	C530.330322,504.156372 532.415039,503.969849 534.973206,503.740997 
	C535.489441,499.382629 536.007812,495.006256 536.564270,490.308624 
	C541.484131,490.308624 546.227844,490.308624 551.620972,490.308624 
	C551.620972,494.574432 551.620972,498.966461 551.620972,503.730682 
	C555.464905,503.911774 558.697510,504.064056 562.148682,504.226654 
	C562.148682,508.275635 562.148682,512.063416 562.148682,516.387878 
	C558.859497,516.559509 555.489380,516.735413 551.577820,516.939575 
	C551.577820,523.673767 551.341309,530.124146 551.660828,536.546814 
	C551.874146,540.833374 554.287903,541.664551 561.568481,540.277466 
	C562.368225,544.044678 563.172302,547.832031 564.082581,552.119690 
	C561.365051,552.771545 558.996216,553.339722 556.210022,553.953735 
z"/>
<path fill="#36B7DF" opacity="1.000000" stroke="none" 
	d="
M397.010468,488.087646 
	C405.151611,488.140381 413.324493,487.771362 421.423737,488.380859 
	C427.775391,488.858887 432.918182,492.107880 434.501831,498.864716 
	C436.122009,505.777313 435.126160,512.115967 429.139923,516.862671 
	C428.626892,517.269531 428.117981,517.681641 427.146393,518.460876 
	C436.428162,521.873047 439.367554,528.784973 438.101593,537.714050 
	C437.057587,545.077576 432.745605,549.163635 424.095520,550.988037 
	C418.840515,547.639526 419.036560,542.706482 419.125916,537.547974 
	C423.027924,531.439758 420.553223,526.357422 413.752930,525.964661 
	C410.135101,525.755737 406.505890,525.744629 402.913025,525.174866 
	C402.621246,521.058777 402.298248,517.412109 402.365845,513.651611 
	C405.395233,513.451416 408.033508,513.317200 410.672882,513.289490 
	C414.804840,513.246094 417.853760,511.889252 418.094452,507.201233 
	C418.301025,503.178558 416.007294,501.212952 410.953613,500.977478 
	C408.313446,500.854462 405.670166,500.798248 403.021729,500.327820 
	C401.765961,498.636536 400.599884,496.309235 399.253143,496.199524 
	C393.559479,495.735657 393.436615,495.790283 396.033844,490.841583 
	C396.481873,489.987885 396.690979,489.008820 397.010468,488.087646 
z"/>
<path fill="#48C5E4" opacity="1.000000" stroke="none" 
	d="
M396.549530,488.009644 
	C396.690979,489.008820 396.481873,489.987885 396.033844,490.841583 
	C393.436615,495.790283 393.559479,495.735657 399.253143,496.199524 
	C400.599884,496.309235 401.765961,498.636536 402.602783,500.457825 
	C402.118683,505.236420 402.046936,509.500885 401.975220,513.765381 
	C402.298248,517.412109 402.621246,521.058777 402.554871,525.276489 
	C401.592529,530.439819 401.019562,535.032227 400.245789,541.234314 
	C407.584900,539.914124 413.266113,538.892212 418.947327,537.870239 
	C419.036560,542.706482 418.840515,547.639526 423.766357,551.013306 
	C420.356537,551.870422 416.592926,553.230469 412.784943,553.368652 
	C403.479401,553.706360 394.153412,553.478882 384.390076,553.478882 
	C384.390076,531.463867 384.390076,510.093384 384.390076,487.931671 
	C388.251892,487.931671 392.170227,487.931671 396.549530,488.009644 
z"/>
<path fill="#1D90CA" opacity="1.000000" stroke="none" 
	d="
M519.478210,513.999695 
	C519.440735,521.158997 519.524536,527.822144 519.320862,534.476501 
	C519.186157,538.874756 520.149109,541.845581 525.952332,540.607483 
	C526.339478,544.620850 526.698975,548.347107 527.181824,553.352051 
	C521.882568,553.451538 516.955994,554.117493 512.202759,553.483582 
	C506.648376,552.742920 503.238770,548.840576 503.163757,543.121155 
	C502.915161,524.164429 503.069885,505.202484 503.069885,485.683777 
	C508.370636,485.448364 513.458313,485.222412 519.477356,484.955078 
	C519.477356,494.689819 519.477356,504.094818 519.478210,513.999695 
z"/>
<path fill="#1D98CC" opacity="1.000000" stroke="none" 
	d="
M474.972412,553.375122 
	C474.240723,553.550232 473.509003,553.725342 472.389343,553.492310 
	C470.537994,550.999512 469.497253,548.251648 467.511749,546.986572 
	C464.570465,545.112488 464.726440,543.304871 466.379639,540.958069 
	C467.750275,541.256042 468.910614,541.808105 469.791351,541.516357 
	C476.207703,539.390564 478.908997,533.336914 477.384857,524.867920 
	C476.118958,517.834045 473.173828,515.650208 465.991760,516.137390 
	C464.579590,511.845886 463.286743,507.925446 461.993896,504.004974 
	C474.948425,500.273895 488.232056,506.492249 492.813416,518.432251 
	C498.059052,532.103455 493.147095,545.493225 480.077209,551.952637 
	C479.616302,552.011047 479.240753,552.187683 479.240753,552.187683 
	C478.756104,552.419556 478.271484,552.651428 477.239441,552.698547 
	C476.118866,552.800903 475.545624,553.088013 474.972412,553.375122 
z"/>
<path fill="#24AAD8" opacity="1.000000" stroke="none" 
	d="
M461.616821,503.973450 
	C463.286743,507.925446 464.579590,511.845886 465.746338,516.344849 
	C458.503479,522.795471 458.719421,535.093506 466.039917,540.821472 
	C464.726440,543.304871 464.570465,545.112488 467.511749,546.986572 
	C469.497253,548.251648 470.537994,550.999512 472.011230,553.441162 
	C459.012726,555.736816 447.178864,548.212830 444.286377,535.952148 
	C441.155121,522.679565 446.466980,507.893402 461.616821,503.973450 
z"/>
<path fill="#24AAD8" opacity="1.000000" stroke="none" 
	d="
M475.232788,553.457397 
	C475.545624,553.088013 476.118866,552.800903 476.831573,552.715576 
	C476.478455,553.124817 475.985840,553.332275 475.232788,553.457397 
z"/>
<path fill="#24AAD8" opacity="1.000000" stroke="none" 
	d="
M479.352600,552.264038 
	C479.240753,552.187683 479.616302,552.011047 479.718994,551.993042 
	C479.792816,552.185364 479.673737,552.307129 479.352600,552.264038 
z"/>
<path fill="#F9FCFD" opacity="1.000000" stroke="none" 
	d="
M293.624878,465.757477 
	C292.558014,468.584747 293.073486,469.991791 296.016022,469.916840 
	C306.485718,469.650208 316.965088,469.620300 327.425049,469.150208 
	C337.943726,468.677399 347.644958,470.362122 353.774841,479.844879 
	C360.353943,490.022644 359.496674,500.268768 352.432434,510.112701 
	C351.743866,511.072205 351.651184,512.869568 351.983917,514.085938 
	C354.338287,522.692993 353.166992,530.432129 347.456909,537.562317 
	C346.162903,539.178162 345.853210,541.961548 345.889038,544.194702 
	C346.015106,552.057007 343.383759,558.757812 338.589386,564.892517 
	C337.201538,566.668335 336.137848,569.218323 336.091705,571.437683 
	C335.780884,586.386230 324.303802,597.964233 309.347504,597.990845 
	C286.024780,598.032349 262.701813,598.081177 239.379456,597.989746 
	C236.164673,597.977112 233.990051,598.720032 231.759949,601.356750 
	C224.891296,609.477722 217.547195,617.195801 210.417465,625.097107 
	C207.198044,628.664978 203.544266,630.339661 198.896042,627.948730 
	C195.334488,626.116821 192.127625,620.841125 193.724167,615.689453 
	C195.418594,610.221924 195.814301,604.351929 196.883789,598.027039 
	C188.090729,598.027039 179.799576,598.041382 171.508514,598.023132 
	C162.627335,598.003540 157.244202,593.257446 157.182709,584.269592 
	C156.976425,554.117981 156.999680,523.963623 157.165710,493.811554 
	C157.210846,485.614777 163.360992,480.134277 171.877182,480.085938 
	C185.370544,480.009369 198.866730,479.971710 212.357376,480.188324 
	C215.920792,480.245544 218.077103,479.197784 220.028915,476.136597 
	C226.642990,465.763397 233.077164,455.209686 240.550766,445.469757 
	C247.352249,436.605835 249.857681,426.740997 249.847046,416.148468 
	C249.828430,397.597443 266.046997,392.307800 279.556061,398.240753 
	C291.200317,403.354706 296.281128,413.287231 298.977325,424.966888 
	C302.238739,439.094788 298.673798,452.313843 293.624878,465.757477 
M233.120651,473.262451 
	C230.363480,477.746826 227.827103,482.392303 224.733444,486.631104 
	C223.597900,488.186951 221.207748,489.503387 219.278534,489.674652 
	C213.884308,490.153473 208.431900,489.976990 202.076782,489.896027 
	C192.935455,489.896240 183.794113,489.908112 174.652802,489.893280 
	C166.671768,489.880341 166.671783,489.867035 167.003937,498.911407 
	C167.058838,503.602386 167.113739,508.293335 167.001648,513.910400 
	C167.048508,526.266296 167.095367,538.622253 166.978409,551.906799 
	C166.964447,562.357727 167.023010,572.809631 166.893143,583.259094 
	C166.853271,586.465759 167.959930,588.627563 171.246262,588.625061 
	C179.169952,588.619080 187.093430,588.322083 195.837769,588.257080 
	C199.774933,588.515381 203.712097,588.773682 208.106781,589.062073 
	C206.464203,599.068726 204.887863,608.671814 203.144424,619.292908 
	C212.610580,608.550293 221.275742,598.716675 230.646713,588.619324 
	C231.601700,588.544067 232.556473,588.406128 233.511688,588.403076 
	C244.364685,588.368713 255.217758,588.354980 266.962769,588.582886 
	C278.639740,588.413086 290.316742,588.243347 302.906036,588.244446 
	C308.559814,588.236023 314.376129,589.096802 319.926666,584.928406 
	C327.164978,578.535217 327.484741,570.954285 323.677551,563.234863 
	C326.326294,561.316406 328.655731,559.629150 331.461121,557.809143 
	C331.776062,557.625000 331.933746,557.350586 331.993591,556.984985 
	C331.993591,556.984985 331.974030,556.928772 332.574707,556.562683 
	C337.510223,549.904297 336.697296,543.263916 332.411682,536.699341 
	C344.888641,528.604126 346.840057,520.104675 339.318359,508.514984 
	C340.031433,508.091217 340.776642,507.713043 341.452545,507.236572 
	C347.219238,503.171204 349.636871,496.011597 347.579559,489.155701 
	C345.547394,482.383575 340.767700,479.032196 332.889282,479.041351 
	C322.258057,479.053741 311.627014,479.163025 300.073090,479.063995 
	C294.163208,479.063995 288.253296,479.063995 280.869263,479.063995 
	C282.722839,471.347961 284.323212,464.685974 286.358185,457.429657 
	C292.481567,443.520508 292.480743,429.722900 285.516663,416.093567 
	C282.893524,410.959808 278.870758,407.401123 273.194397,405.979095 
	C264.599915,403.826019 259.895355,407.559296 259.084686,416.354706 
	C258.387146,423.923065 256.992249,431.427185 255.395157,439.406952 
	C253.068420,443.245270 250.855316,447.158264 248.390823,450.906006 
	C243.547821,458.270660 238.565063,465.543427 233.120651,473.262451 
z"/>
<path fill="#F9FCFD" opacity="1.000000" stroke="none" 
	d="
M843.018066,518.176758 
	C850.821838,514.505615 856.181824,517.273743 857.063660,525.436157 
	C857.410095,528.642822 857.107727,532.106995 856.238708,535.212585 
	C855.009705,539.605103 850.726746,541.781982 846.460754,540.912537 
	C841.995056,540.002380 840.641296,537.046875 841.131165,532.825867 
	C841.688721,528.022095 842.170288,523.209412 843.018066,518.176758 
z"/>
<path fill="#F9FCFD" opacity="1.000000" stroke="none" 
	d="
M419.125916,537.547974 
	C413.266113,538.892212 407.584900,539.914124 400.245789,541.234314 
	C401.019562,535.032227 401.592529,530.439819 402.523621,525.745850 
	C406.505890,525.744629 410.135101,525.755737 413.752930,525.964661 
	C420.553223,526.357422 423.027924,531.439758 419.125916,537.547974 
z"/>
<path fill="#F9FCFD" opacity="1.000000" stroke="none" 
	d="
M402.365845,513.651611 
	C402.046936,509.500885 402.118683,505.236420 402.609375,500.841919 
	C405.670166,500.798248 408.313446,500.854462 410.953613,500.977478 
	C416.007294,501.212952 418.301025,503.178558 418.094452,507.201233 
	C417.853760,511.889252 414.804840,513.246094 410.672882,513.289490 
	C408.033508,513.317200 405.395233,513.451416 402.365845,513.651611 
z"/>
<path fill="#F9FCFD" opacity="1.000000" stroke="none" 
	d="
M466.379639,540.958069 
	C458.719421,535.093506 458.503479,522.795471 465.865662,516.715881 
	C473.173828,515.650208 476.118958,517.834045 477.384857,524.867920 
	C478.908997,533.336914 476.207703,539.390564 469.791351,541.516357 
	C468.910614,541.808105 467.750275,541.256042 466.379639,540.958069 
z"/>
<path fill="#1B89BF" opacity="1.000000" stroke="none" 
	d="
M285.923584,458.024017 
	C284.323212,464.685974 282.722839,471.347961 280.869263,479.063995 
	C288.253296,479.063995 294.163208,479.063995 300.538055,479.515137 
	C303.220947,482.592407 304.934875,486.241791 307.760742,487.633667 
	C313.813782,490.615112 318.435455,494.862946 322.066528,500.263580 
	C326.139984,506.322174 331.060150,510.303986 338.851685,509.021698 
	C346.840057,520.104675 344.888641,528.604126 332.411682,536.699341 
	C336.697296,543.263916 337.510223,549.904297 332.281311,556.381836 
	C331.402344,555.069580 331.067780,553.667603 330.188873,552.852539 
	C325.845673,548.825012 321.301270,545.015076 316.938782,541.007629 
	C312.947571,537.341187 309.410034,533.109009 305.119354,529.855774 
	C296.883484,523.611206 288.255859,517.883362 279.821991,511.615540 
	C279.235229,510.844269 278.617218,510.398682 277.959259,509.600159 
	C276.989685,507.510132 276.081085,505.761383 275.126648,504.038025 
	C271.498810,497.487274 266.166077,493.261017 258.700226,491.612122 
	C261.976868,480.079559 265.213196,468.952759 268.841553,457.895081 
	C271.272949,458.343964 273.320374,459.072937 275.349823,459.026031 
	C278.880249,458.944336 282.399597,458.383820 285.923584,458.024017 
z"/>
<path fill="#3EC0E1" opacity="1.000000" stroke="none" 
	d="
M229.940887,588.883057 
	C221.275742,598.716675 212.610580,608.550293 203.144424,619.292908 
	C204.887863,608.671814 206.464203,599.068726 208.106781,589.062073 
	C203.712097,588.773682 199.774933,588.515381 195.416656,587.804810 
	C192.952881,582.814392 191.136993,578.155396 188.800812,573.773804 
	C186.664062,569.766113 184.157333,565.916870 181.466568,562.252686 
	C177.766403,557.213745 173.604675,552.587036 167.142242,550.978149 
	C167.095367,538.622253 167.048508,526.266296 167.445999,513.457031 
	C169.003647,513.836243 170.648224,514.430359 171.145996,515.539307 
	C175.035583,524.204346 182.592484,529.468872 189.038269,535.874634 
	C196.128479,542.920776 202.924576,550.481323 208.550644,558.705811 
	C212.325775,564.224548 218.149078,566.368347 222.594467,570.553650 
	C222.735977,570.686890 223.464996,570.196106 223.925079,570.369812 
	C221.772903,577.172852 219.615799,583.602295 217.323700,590.317627 
	C216.539612,591.828796 215.890533,593.054138 215.186386,594.383423 
	C219.792542,596.243164 220.621811,592.146912 222.014801,590.177368 
	C224.501495,586.661438 226.748688,586.012756 229.940887,588.883057 
z"/>
<path fill="#1D98CC" opacity="1.000000" stroke="none" 
	d="
M279.790771,511.941223 
	C288.255859,517.883362 296.883484,523.611206 305.119354,529.855774 
	C309.410034,533.109009 312.947571,537.341187 316.938782,541.007629 
	C321.301270,545.015076 325.845673,548.825012 330.188873,552.852539 
	C331.067780,553.667603 331.402344,555.069580 331.980957,556.564880 
	C331.974030,556.928772 331.993591,556.984985 331.763824,557.098999 
	C331.285706,557.406799 331.102753,557.649780 330.985168,557.941956 
	C328.655731,559.629150 326.326294,561.316406 323.677551,563.234863 
	C327.484741,570.954285 327.164978,578.535217 319.325623,584.863281 
	C319.135315,583.697083 319.624176,582.617493 319.935486,581.489014 
	C320.266602,580.288635 321.064972,578.529968 320.558807,577.901672 
	C318.004791,574.731506 315.249542,571.681458 312.272339,568.902771 
	C305.872589,562.929565 299.378632,557.050232 292.762299,551.318176 
	C287.003418,546.329041 281.054016,541.557129 275.128601,536.763733 
	C272.115448,534.326233 268.969696,532.052551 265.998413,529.398438 
	C270.672211,523.375183 275.231476,517.658203 279.790771,511.941223 
z"/>
<path fill="#20A0D2" opacity="1.000000" stroke="none" 
	d="
M265.883881,529.704834 
	C268.969696,532.052551 272.115448,534.326233 275.128601,536.763733 
	C281.054016,541.557129 287.003418,546.329041 292.762299,551.318176 
	C299.378632,557.050232 305.872589,562.929565 312.272339,568.902771 
	C315.249542,571.681458 318.004791,574.731506 320.558807,577.901672 
	C321.064972,578.529968 320.266602,580.288635 319.935486,581.489014 
	C319.624176,582.617493 319.135315,583.697083 319.011719,584.988525 
	C314.376129,589.096802 308.559814,588.236023 302.448303,587.784302 
	C300.517731,585.484985 299.323059,583.291565 297.518829,581.874146 
	C292.498077,577.929626 286.960358,574.612915 282.142029,570.451660 
	C278.865021,567.621582 276.714355,563.523499 273.598297,560.462402 
	C268.800140,555.749023 263.671570,551.361145 258.532074,547.013794 
	C257.301605,545.972961 255.475540,545.636230 254.031494,544.653931 
	C258.054352,539.456360 261.969116,534.580566 265.883881,529.704834 
z"/>
<path fill="#1F7AB2" opacity="1.000000" stroke="none" 
	d="
M286.140869,457.726837 
	C282.399597,458.383820 278.880249,458.944336 275.349823,459.026031 
	C273.320374,459.072937 271.272949,458.343964 268.919189,457.500153 
	C269.085114,454.678589 269.565460,452.321136 270.016785,449.980652 
	C269.987732,449.997681 269.979675,450.064575 270.155060,449.901123 
	C270.251282,449.239624 270.172119,448.741608 269.856598,447.924530 
	C263.614349,446.998810 258.448334,445.059937 255.905655,438.959686 
	C256.992249,431.427185 258.387146,423.923065 259.084686,416.354706 
	C259.895355,407.559296 264.599915,403.826019 273.194397,405.979095 
	C278.870758,407.401123 282.893524,410.959808 285.516663,416.093567 
	C292.480743,429.722900 292.481567,443.520508 286.140869,457.726837 
z"/>
<path fill="#2FB7DF" opacity="1.000000" stroke="none" 
	d="
M223.920135,569.996155 
	C223.464996,570.196106 222.735977,570.686890 222.594467,570.553650 
	C218.149078,566.368347 212.325775,564.224548 208.550644,558.705811 
	C202.924576,550.481323 196.128479,542.920776 189.038269,535.874634 
	C182.592484,529.468872 175.035583,524.204346 171.145996,515.539307 
	C170.648224,514.430359 169.003647,513.836243 167.529495,512.993958 
	C167.113739,508.293335 167.058838,503.602386 167.454895,498.453491 
	C169.721619,498.949860 171.867310,499.556030 173.300369,500.914124 
	C183.664505,510.736389 193.810150,520.790344 204.247574,530.532471 
	C205.506851,531.707886 208.097427,531.457031 210.398254,531.957153 
	C211.152664,532.194336 211.579773,532.341614 212.032822,532.852478 
	C212.543045,533.782593 213.117050,534.895630 213.498093,534.833130 
	C218.595886,533.996277 221.030304,537.789490 224.172638,540.569397 
	C226.512558,542.639404 229.295670,544.208557 231.862915,546.370422 
	C229.202972,554.492126 226.561554,562.244141 223.920135,569.996155 
z"/>
<path fill="#29AEDB" opacity="1.000000" stroke="none" 
	d="
M210.070984,531.867249 
	C208.097427,531.457031 205.506851,531.707886 204.247574,530.532471 
	C193.810150,520.790344 183.664505,510.736389 173.300369,500.914124 
	C171.867310,499.556030 169.721619,498.949860 167.534897,497.992859 
	C166.671783,489.867035 166.671768,489.880341 174.652802,489.893280 
	C183.794113,489.908112 192.935455,489.896240 202.538971,490.361694 
	C203.531616,492.539612 203.551376,494.772736 204.677826,495.877014 
	C210.669113,501.750458 216.937759,507.340942 223.104950,513.379517 
	C218.756668,519.775513 214.413818,525.821411 210.070984,531.867249 
z"/>
<path fill="#24AAD8" opacity="1.000000" stroke="none" 
	d="
M253.923401,544.975708 
	C255.475540,545.636230 257.301605,545.972961 258.532074,547.013794 
	C263.671570,551.361145 268.800140,555.749023 273.598297,560.462402 
	C276.714355,563.523499 278.865021,567.621582 282.142029,570.451660 
	C286.960358,574.612915 292.498077,577.929626 297.518829,581.874146 
	C299.323059,583.291565 300.517731,585.484985 301.992157,587.698853 
	C290.316742,588.243347 278.639740,588.413086 266.478333,588.149170 
	C258.169983,581.061157 253.923965,570.578125 243.377747,566.752930 
	C241.931366,566.228333 241.049561,564.147156 240.034988,562.484863 
	C244.750198,556.447388 249.336807,550.711548 253.923401,544.975708 
z"/>
<path fill="#1F7AB2" opacity="1.000000" stroke="none" 
	d="
M339.085022,508.768341 
	C331.060150,510.303986 326.139984,506.322174 322.066528,500.263580 
	C318.435455,494.862946 313.813782,490.615112 307.760742,487.633667 
	C304.934875,486.241791 303.220947,482.592407 300.999451,479.598450 
	C311.627014,479.163025 322.258057,479.053741 332.889282,479.041351 
	C340.767700,479.032196 345.547394,482.383575 347.579559,489.155701 
	C349.636871,496.011597 347.219238,503.171204 341.452545,507.236572 
	C340.776642,507.713043 340.031433,508.091217 339.085022,508.768341 
z"/>
<path fill="#52CBE3" opacity="1.000000" stroke="none" 
	d="
M167.060333,551.442505 
	C173.604675,552.587036 177.766403,557.213745 181.466568,562.252686 
	C184.157333,565.916870 186.664062,569.766113 188.800812,573.773804 
	C191.136993,578.155396 192.952881,582.814392 195.006256,587.747437 
	C187.093430,588.322083 179.169952,588.619080 171.246262,588.625061 
	C167.959930,588.627563 166.853271,586.465759 166.893143,583.259094 
	C167.023010,572.809631 166.964447,562.357727 167.060333,551.442505 
z"/>
<path fill="#20A0D2" opacity="1.000000" stroke="none" 
	d="
M223.110382,513.029419 
	C216.937759,507.340942 210.669113,501.750458 204.677826,495.877014 
	C203.551376,494.772736 203.531616,492.539612 203.001816,490.443268 
	C208.431900,489.976990 213.884308,490.153473 219.278534,489.674652 
	C221.207748,489.503387 223.597900,488.186951 224.733444,486.631104 
	C227.827103,482.392303 230.363480,477.746826 233.719513,473.202637 
	C237.873535,476.428589 241.428711,479.714294 244.910995,483.333374 
	C237.595535,493.454315 230.352966,503.241882 223.110382,513.029419 
z"/>
<path fill="#36B7DF" opacity="1.000000" stroke="none" 
	d="
M239.906372,562.786621 
	C241.049561,564.147156 241.931366,566.228333 243.377747,566.752930 
	C253.923965,570.578125 258.169983,581.061157 266.032349,588.025513 
	C255.217758,588.354980 244.364685,588.368713 233.511688,588.403076 
	C232.556473,588.406128 231.601700,588.544067 230.293808,588.751221 
	C226.748688,586.012756 224.501495,586.661438 222.014801,590.177368 
	C220.621811,592.146912 219.792542,596.243164 215.186386,594.383423 
	C215.890533,593.054138 216.539612,591.828796 217.705811,590.355225 
	C219.307159,588.897949 220.464813,587.746399 221.463608,586.470520 
	C227.631088,578.591431 233.762772,570.684387 239.906372,562.786621 
z"/>
<path fill="#1B89BF" opacity="1.000000" stroke="none" 
	d="
M244.983887,483.000000 
	C241.428711,479.714294 237.873535,476.428589 233.979248,472.998535 
	C238.565063,465.543427 243.547821,458.270660 248.390823,450.906006 
	C250.855316,447.158264 253.068420,443.245270 255.650406,439.183319 
	C258.448334,445.059937 263.614349,446.998810 269.843323,448.233856 
	C270.037537,449.263000 270.008606,449.663788 269.979675,450.064575 
	C269.979675,450.064575 269.987732,449.997681 269.660339,449.954559 
	C261.216614,460.940948 253.100235,471.970459 244.983887,483.000000 
z"/>
<path fill="#1B89BF" opacity="1.000000" stroke="none" 
	d="
M331.223145,557.875549 
	C331.102753,557.649780 331.285706,557.406799 331.734100,557.099426 
	C331.933746,557.350586 331.776062,557.625000 331.223145,557.875549 
z"/>
<path fill="#F9FCFD" opacity="1.000000" stroke="none" 
	d="
M244.910980,483.333374 
	C253.100235,471.970459 261.216614,460.940948 269.689392,449.937561 
	C269.565460,452.321136 269.085114,454.678589 268.527130,457.431000 
	C265.213196,468.952759 261.976868,480.079559 258.493622,491.901062 
	C256.627747,498.262543 255.008789,503.929321 253.287857,509.953094 
	C261.862701,509.953094 269.930939,509.953094 277.999176,509.953094 
	C278.617218,510.398682 279.235229,510.844269 279.822021,511.615540 
	C275.231476,517.658203 270.672211,523.375183 265.998413,529.398438 
	C261.969116,534.580566 258.054352,539.456360 254.031494,544.653931 
	C249.336807,550.711548 244.750198,556.447388 240.034988,562.484863 
	C233.762772,570.684387 227.631088,578.591431 221.463608,586.470520 
	C220.464813,587.746399 219.307159,588.897949 217.840820,590.069336 
	C219.615799,583.602295 221.772903,577.172852 223.925079,570.369812 
	C226.561554,562.244141 229.202972,554.492126 231.979370,545.988770 
	C233.399841,541.160339 234.685364,537.083252 235.960831,532.739441 
	C235.627670,532.412170 235.304581,532.351685 234.515869,532.255371 
	C226.702469,532.309326 219.354675,532.399109 212.006897,532.488892 
	C211.579773,532.341614 211.152664,532.194336 210.398270,531.957153 
	C214.413818,525.821411 218.756668,519.775513 223.104950,513.379517 
	C230.352966,503.241882 237.595535,493.454315 244.910980,483.333374 
z"/>
<path fill="#2097CA" opacity="1.000000" stroke="none" 
	d="
M277.959259,509.600159 
	C269.930939,509.953094 261.862701,509.953094 253.287857,509.953094 
	C255.008789,503.929321 256.627747,498.262543 258.453308,492.306824 
	C266.166077,493.261017 271.498810,497.487274 275.126648,504.038025 
	C276.081085,505.761383 276.989685,507.510132 277.959259,509.600159 
z"/>
<path fill="#F9FCFD" opacity="1.000000" stroke="none" 
	d="
M270.155060,449.901123 
	C270.008606,449.663788 270.037537,449.263000 270.079712,448.552887 
	C270.172119,448.741608 270.251282,449.239624 270.155060,449.901123 
z"/>
<path fill="#29AEDB" opacity="1.000000" stroke="none" 
	d="
M235.970901,533.006226 
	C234.685364,537.083252 233.399841,541.160339 231.997864,545.619019 
	C229.295670,544.208557 226.512558,542.639404 224.172638,540.569397 
	C221.030304,537.789490 218.595886,533.996277 213.498093,534.833130 
	C213.117050,534.895630 212.543045,533.782593 212.032822,532.852417 
	C219.354675,532.399109 226.702469,532.309326 234.640274,532.424072 
	C235.441589,532.824158 235.688446,532.950073 235.970901,533.006226 
z"/>
<path fill="#52CBE3" opacity="1.000000" stroke="none" 
	d="
M235.960831,532.739441 
	C235.688446,532.950073 235.441589,532.824158 235.105896,532.459839 
	C235.304581,532.351685 235.627670,532.412170 235.960831,532.739441 
z"/>
</svg>